<?xml version="1.0" encoding="utf-8"?>
<!-- Generator: Adobe Illustrator 21.1.0, SVG Export Plug-In . SVG Version: 6.00 Build 0)  -->
<svg version="1.1" id="圖層_1" xmlns="http://www.w3.org/2000/svg" xmlns:xlink="http://www.w3.org/1999/xlink" x="0px" y="0px"
	 viewBox="0 0 253 141" style="enable-background:new 0 0 253 141;" xml:space="preserve">
<style type="text/css">
	.st0{fill:#FFFFFF;}
	.st1{fill-rule:evenodd;clip-rule:evenodd;fill:#EE3038;}
</style>
<g>
	<g>
		<path class="st0" d="M144.4,103.2c-0.5-0.1-1-0.2-1.5-0.3c-0.5-0.1-0.9-0.2-1.3-0.3c-0.4-0.1-0.7-0.2-0.9-0.4
			c-0.2-0.2-0.4-0.3-0.4-0.5c0-0.3,0.1-0.5,0.2-0.8c0.1-0.3,5.5-15.8,5.5-15.8l3.6,0c0,0,0.6,1.7,1,2.6c0.4,0.9,1.3,2.4,1.3,2.4
			l0.6-0.3c0,0-0.1-2-0.1-3.2c0.1-1.1,0.4-2.7,0.4-2.7h-17.7c0,0-0.6,1.6-1.1,2.6c-0.5,1-1.5,2.4-1.5,2.4l0.5,0.4
			c0,0,1.7-1.2,2.9-2.2c1.1-1,2.3-2.2,2.3-2.2l3.7,0l-5.3,15.5c0,0-0.2,0.6-0.4,0.8c-0.1,0.2-0.3,0.5-0.6,0.6
			c-0.3,0.2-0.7,0.3-1.2,0.5c-0.5,0.2-1.3,0.5-2.3,0.6l-0.2,0.5h12.4L144.4,103.2z"/>
		<path class="st0" d="M149.2,96.9c-0.6,0.7-1.1,1.5-1.5,2.3c-0.4,0.8-0.6,1.7-0.6,2.5c0,0.4,0.1,0.8,0.2,1.1
			c0.2,0.3,0.4,0.5,0.6,0.7c0.3,0.2,0.6,0.3,0.9,0.4c0.3,0.1,0.7,0.1,1.1,0.1c0.5,0,1.1-0.2,1.7-0.5c0.6-0.3,1.2-0.7,1.8-1.1
			c0.6-0.4,1.1-0.9,1.6-1.4s0.9-1,1.2-1.4l-1.5,3.1c0.5,0.5,0.9,0.8,1.4,1c0.5,0.2,1.1,0.3,1.7,0.3c0.5,0,0.9-0.1,1.4-0.2
			c0.5-0.1,0.9-0.3,1.3-0.5c0.4-0.2,0.8-0.4,1.1-0.7c0.3-0.2,0.6-0.5,0.7-0.7c0,0,0.1-0.1,0.2-0.2c0.1-0.1,0.2-0.2,0.3-0.3
			c0.1-0.1,0.2-0.2,0.2-0.3c0.1-0.1,0.1-0.2,0.1-0.2c0-0.2-0.1-0.3-0.2-0.3c-0.1,0-0.2,0.1-0.3,0.2c-0.2,0.2-0.3,0.3-0.6,0.5
			c-0.2,0.2-0.5,0.4-0.8,0.5c-0.3,0.2-0.6,0.2-1,0.2c-0.2,0-0.5-0.1-0.8-0.2c-0.3-0.1-0.4-0.3-0.4-0.7c0-0.3,0.1-0.7,0.2-1.2
			c0.1-0.5,0.3-1,0.5-1.6l2.5-6.4h-3.5l-0.2,0.8c-0.1-0.3-0.4-0.6-0.7-0.8c-0.4-0.2-0.7-0.3-1-0.3c-0.3,0-0.7,0.1-1.2,0.4
			c-0.6,0.3-1.2,0.6-1.9,1c-0.7,0.4-1.4,1-2.2,1.6S149.8,96.2,149.2,96.9z M152.3,96.9c0.4-0.6,0.8-1.2,1.2-1.8
			c0.4-0.6,0.8-1,1.2-1.4c0.3,0,0.6,0,0.9,0.1c0.3,0.1,0.6,0.1,0.8,0.3c0.3,0.1,0.5,0.3,0.7,0.5c0.2,0.2,0.3,0.4,0.4,0.7
			c-0.2,0.5-0.4,1.1-0.7,1.9c-0.3,0.8-0.7,1.5-1.1,2.3c-0.5,0.7-1,1.4-1.5,1.9c-0.6,0.5-1.2,0.8-1.8,0.8c-0.5,0-0.8-0.1-1-0.4
			c-0.2-0.3-0.2-0.6-0.2-1.1c0-0.6,0.1-1.2,0.4-1.8C151.6,98.1,151.9,97.5,152.3,96.9z"/>
		<path class="st0" d="M170.7,88c0.4,0,0.7-0.1,1-0.2c0.3-0.1,0.5-0.3,0.8-0.6c0.2-0.2,0.4-0.5,0.5-0.8c0.1-0.3,0.2-0.6,0.2-0.9
			c0-0.5-0.2-0.9-0.5-1.2c-0.3-0.3-0.7-0.5-1.3-0.5c-0.4,0-0.7,0.1-1,0.2s-0.5,0.3-0.8,0.5c-0.2,0.2-0.4,0.5-0.5,0.8
			c-0.1,0.3-0.2,0.6-0.2,0.9c0,0.5,0.2,1,0.5,1.3C169.7,87.9,170.1,88,170.7,88z"/>
		<path class="st0" d="M171.5,100.8c-0.1,0-0.2,0.1-0.3,0.2c-0.1,0.2-0.3,0.3-0.5,0.5c-0.2,0.2-0.5,0.4-0.8,0.5
			c-0.3,0.2-0.7,0.2-1.2,0.2c-0.3,0-0.6-0.1-0.9-0.3c-0.3-0.2-0.4-0.5-0.4-0.9c0-0.2,0.1-0.5,0.2-0.8c0.1-0.3,0.3-0.7,0.4-1l2.6-7
			h-3.7l-2.4,6.7c-0.1,0.2-0.2,0.5-0.3,0.8c-0.1,0.3-0.2,0.6-0.3,0.8c-0.1,0.3-0.2,0.5-0.2,0.8c-0.1,0.2-0.1,0.5-0.1,0.6
			c0,0.4,0.1,0.7,0.3,1c0.2,0.3,0.4,0.5,0.7,0.7c0.3,0.2,0.6,0.3,1,0.4c0.3,0.1,0.7,0.1,1,0.1c0.6,0,1.2-0.2,1.8-0.5
			c0.6-0.3,1.1-0.6,1.6-1c0.5-0.4,0.9-0.7,1.2-1.1c0.3-0.3,0.5-0.5,0.5-0.6C171.7,100.9,171.6,100.8,171.5,100.8z"/>
		<path class="st0" d="M178.6,102c0.1,0.7,0.2,1.3,0.2,1.7c0,0.3,0.1,0.4,0.2,0.4c0.1,0,0.2-0.1,0.3-0.2c0.2-0.1,0.3-0.2,0.5-0.4
			c0.2-0.2,0.4-0.3,0.6-0.5c0.2-0.2,0.4-0.3,0.5-0.5l4.1-3.4c0.3-0.3,0.7-0.6,1.1-1c0.4-0.4,0.7-0.8,1-1.2c0.3-0.4,0.5-0.9,0.7-1.4
			c0.2-0.5,0.3-1,0.3-1.5c0-0.6-0.2-1.2-0.5-1.6c-0.4-0.5-0.9-0.7-1.6-0.7c-0.5,0-0.9,0.1-1.2,0.4c-0.3,0.2-0.5,0.6-0.5,1.1
			c0,0.2,0,0.4,0.1,0.6c0.1,0.2,0.2,0.4,0.3,0.7c0.1,0.2,0.2,0.5,0.2,0.8c0.1,0.3,0.1,0.6,0.1,0.9c0,0.5-0.1,1-0.3,1.5
			c-0.2,0.5-0.5,0.9-0.8,1.3c-0.3,0.4-0.7,0.8-1,1.1c-0.4,0.4-0.7,0.7-1.1,1c0-1-0.1-2-0.3-2.9s-0.3-1.9-0.3-2.8
			c0-0.7,0.1-1.2,0.2-1.6c0.1-0.4,0.3-0.7,0.5-1c0.2-0.3,0.3-0.4,0.5-0.6c0.1-0.1,0.2-0.2,0.2-0.3c0-0.1,0-0.1-0.1-0.1
			c-0.5,0-1.1,0.2-1.6,0.5c-0.5,0.3-1,0.7-1.5,1.2c-0.4,0.5-0.8,1-1.1,1.7c-0.3,0.6-0.4,1.3-0.4,1.9c0,0.2,0,0.6,0.1,1
			c0,0.4,0.1,0.8,0.3,1.2l-2.1,1.8c-0.1-0.8-0.2-1.8-0.4-2.8c-0.2-1-0.3-2-0.3-3c0-0.6,0.1-1.1,0.2-1.5c0.2-0.4,0.3-0.7,0.5-0.9
			c0.2-0.2,0.3-0.4,0.5-0.5c0.2-0.1,0.2-0.2,0.2-0.3c0-0.1,0-0.1-0.1-0.1c-0.5,0-1.1,0.2-1.6,0.5c-0.6,0.3-1.1,0.7-1.5,1.2
			c-0.5,0.5-0.8,1.1-1.1,1.7c-0.3,0.6-0.4,1.3-0.4,2c0,0.3,0.1,0.8,0.2,1.4c0.1,0.6,0.2,1.2,0.3,1.8c0.1,0.6,0.2,1.2,0.3,1.8
			c0.1,0.6,0.2,1.1,0.2,1.5c0,0.3,0.1,0.4,0.2,0.4c0.1,0,0.2-0.1,0.3-0.2c0.2-0.1,0.3-0.2,0.5-0.4c0.2-0.2,0.4-0.3,0.6-0.5
			c0.2-0.2,0.4-0.3,0.5-0.5l3.1-2.8C178.4,100.6,178.5,101.3,178.6,102z"/>
		<path class="st0" d="M186.8,101.8c0,0.4,0.1,0.8,0.2,1.1c0.2,0.3,0.4,0.5,0.6,0.7c0.3,0.2,0.6,0.3,0.9,0.4
			c0.3,0.1,0.7,0.1,1.1,0.1c0.5,0,1.1-0.2,1.7-0.5c0.6-0.3,1.2-0.7,1.8-1.1c0.6-0.4,1.1-0.9,1.6-1.4c0.5-0.5,0.9-1,1.2-1.4l-1.5,3.1
			c0.5,0.5,0.9,0.8,1.4,1c0.5,0.2,1.1,0.3,1.7,0.3c0.5,0,0.9-0.1,1.4-0.2s0.9-0.3,1.3-0.5c0.4-0.2,0.8-0.4,1.1-0.7
			c0.3-0.2,0.6-0.5,0.7-0.7c0,0,0.1-0.1,0.2-0.2c0.1-0.1,0.2-0.2,0.3-0.3c0.1-0.1,0.2-0.2,0.2-0.3c0.1-0.1,0.1-0.2,0.1-0.2
			c0-0.2-0.1-0.3-0.2-0.3c-0.1,0-0.2,0.1-0.3,0.2c-0.2,0.2-0.3,0.3-0.6,0.5c-0.2,0.2-0.5,0.4-0.8,0.5c-0.3,0.2-0.6,0.2-1,0.2
			c-0.2,0-0.5-0.1-0.8-0.2c-0.3-0.1-0.4-0.3-0.4-0.7c0-0.3,0.1-0.7,0.2-1.2c0.1-0.5,0.3-1,0.5-1.6l2.5-6.4h-3.5l-0.2,0.8
			c-0.1-0.3-0.4-0.6-0.7-0.8c-0.4-0.2-0.7-0.3-1-0.3c-0.3,0-0.7,0.1-1.2,0.4c-0.6,0.3-1.2,0.6-1.9,1c-0.7,0.4-1.4,1-2.2,1.6
			c-0.7,0.6-1.4,1.3-2,2c-0.6,0.7-1.1,1.5-1.5,2.3C187,100.1,186.8,100.9,186.8,101.8z M191.2,98.8c0.2-0.6,0.5-1.3,0.9-1.9
			c0.4-0.6,0.8-1.2,1.2-1.8c0.4-0.6,0.8-1,1.2-1.4c0.3,0,0.6,0,0.9,0.1c0.3,0.1,0.6,0.1,0.8,0.3c0.3,0.1,0.5,0.3,0.7,0.5
			c0.2,0.2,0.3,0.4,0.4,0.7c-0.2,0.5-0.4,1.1-0.7,1.9c-0.3,0.8-0.7,1.5-1.1,2.3c-0.5,0.7-1,1.4-1.5,1.9c-0.6,0.5-1.2,0.8-1.8,0.8
			c-0.5,0-0.8-0.1-1-0.4c-0.2-0.3-0.2-0.6-0.2-1.1C190.8,100,190.9,99.4,191.2,98.8z"/>
		<path class="st0" d="M206.1,103.8c0.4-1,0.7-2,1.1-3.1c0.4-1,0.8-1.9,1.2-2.5c0.2-0.3,0.5-0.7,0.8-1.2c0.3-0.5,0.6-0.9,1-1.3
			c0.4-0.4,0.7-0.8,1.1-1c0.4-0.3,0.8-0.4,1.2-0.4c0.6,0,0.9,0.3,0.9,0.9c0,0.2-0.1,0.4-0.2,0.8c-0.1,0.4-0.3,0.8-0.5,1.3
			c-0.2,0.5-0.4,1-0.6,1.5c-0.2,0.5-0.4,1-0.6,1.5c-0.2,0.5-0.4,0.9-0.5,1.3c-0.1,0.4-0.2,0.7-0.2,0.9c0,0.4,0.1,0.7,0.3,0.9
			c0.2,0.2,0.4,0.4,0.6,0.5c0.3,0.1,0.5,0.2,0.9,0.3c0.3,0,0.6,0.1,0.9,0.1c0.7,0,1.3-0.1,1.9-0.4c0.6-0.3,1.1-0.5,1.6-0.9
			c0.5-0.3,0.8-0.6,1.1-0.9c0.3-0.3,0.4-0.5,0.4-0.6c0-0.1,0-0.2-0.1-0.2c-0.1,0-0.2,0.1-0.4,0.2c-0.2,0.1-0.3,0.3-0.5,0.4
			c-0.2,0.2-0.4,0.3-0.7,0.4c-0.3,0.1-0.5,0.2-0.8,0.2c-0.4,0-0.7-0.1-0.9-0.2c-0.2-0.2-0.3-0.4-0.3-0.8c0-0.2,0.1-0.6,0.4-1.3
			c0.3-0.7,0.6-1.4,0.9-2.2c0.3-0.8,0.7-1.5,0.9-2.3c0.3-0.7,0.4-1.3,0.4-1.6c0-0.7-0.2-1.2-0.7-1.6c-0.5-0.3-1.1-0.5-1.7-0.5
			c-0.7,0-1.5,0.2-2.1,0.6c-0.7,0.4-1.3,0.9-1.9,1.5c-0.6,0.6-1.1,1.2-1.6,1.9c-0.5,0.7-1.3,1.8-1.3,1.8l2.2-5.5h-3.6l-3.9,11.5
			H206.1z"/>
		<path class="st0" d="M141.3,130.3c-0.4-0.2-0.7-0.5-0.9-1c-0.2-0.5-0.3-1-0.4-1.6c-0.1-0.6-0.2-1.2-0.3-1.9
			c-0.1-0.6-0.3-1.2-0.6-1.8c-0.3-0.6-0.7-1.1-1.3-1.5c-0.6-0.4-2.3-0.8-2.3-0.8c0.8-0.1,1.7-0.3,2.7-0.5c0.9-0.2,1.8-0.5,2.6-1
			c0.8-0.4,1.4-1,1.9-1.7c0.5-0.7,0.8-1.6,0.8-2.6c0-0.8-0.1-1.5-0.4-2c-0.3-0.5-0.6-0.9-1.1-1.3s-1-0.6-1.6-0.7
			c-0.6-0.1-1.5-0.2-2.4-0.2c-1.3,0-9.4,0-9.4,0l-0.2,0.7c0.6,0.1,1.1,0.3,1.4,0.4c0.4,0.1,0.6,0.2,0.8,0.3c0.2,0.1,0.3,0.2,0.4,0.3
			c0.1,0.1,0.1,0.2,0.1,0.3c0,0.2-0.1,0.5-0.2,0.9c-0.1,0.4-4.2,12.3-4.5,13.2c-0.1,0.3-0.3,0.7-0.4,1c-0.2,0.3-0.4,0.6-0.6,0.9
			c-0.3,0.3-0.6,0.5-1,0.7c-0.4,0.2-1,0.5-1.7,0.5l-0.2,0.7h10.4l0.2-0.7c0,0-1.8-0.4-2-0.5c-0.3-0.1-0.5-0.2-0.7-0.4
			c-0.2-0.2-0.3-0.3-0.3-0.6c0-0.2,0.1-0.6,0.3-1.3c0.2-0.7,2-6,2-6c0.6,0.1,1.1,0.2,1.5,0.3c0.4,0.1,0.8,0.4,1.1,0.8
			c0.2,0.2,0.3,0.4,0.4,0.7c0.1,0.3,0.2,0.6,0.3,1c0.1,0.4,0.2,0.9,0.3,1.4c0.1,0.6,0.2,1.2,0.3,2c0.1,0.7,0.2,1.2,0.5,1.7
			c0.3,0.4,0.6,0.8,1,1.1c0.4,0.3,0.8,0.4,1.3,0.6c0.5,0.1,1,0.2,1.6,0.2c0.5,0,1,0,1.5-0.1c0.5-0.1,1.5-0.2,1.5-0.2l0.2-0.7
			c0,0-1,0-1.4-0.1C142,130.6,141.7,130.5,141.3,130.3z M134.9,120.9c-0.8,0.2-1.6,0.4-2.4,0.4l3-8.5c0.4-0.1,0.8-0.1,1.1-0.1
			c0.8,0,1.5,0.3,1.9,0.8c0.5,0.5,0.7,1.3,0.7,2.3c0,0.9-0.2,1.8-0.6,2.4c-0.4,0.7-0.9,1.2-1.6,1.7
			C136.5,120.3,135.7,120.6,134.9,120.9z"/>
		<path class="st0" d="M153.5,119.6c-0.6,0-1.3,0.1-2,0.4c-0.7,0.3-1.4,0.6-2.1,1c-0.7,0.4-1.4,0.9-2,1.5c-0.6,0.6-1.2,1.2-1.7,1.9
			c-0.5,0.7-0.9,1.4-1.2,2.1c-0.3,0.7-0.4,1.4-0.4,2.1c0,0.6,0.1,1.1,0.3,1.5c0.2,0.4,0.5,0.7,0.8,1c0.3,0.3,0.7,0.4,1.2,0.5
			c0.5,0.1,0.9,0.2,1.5,0.2c1,0,1.9-0.2,2.8-0.5c0.9-0.3,1.6-0.7,2.3-1.1c0.6-0.4,1.1-0.8,1.5-1.2c0.4-0.4,0.5-0.6,0.5-0.7
			c0-0.1,0-0.2-0.1-0.2c-0.1,0-0.2,0.1-0.5,0.3c-0.2,0.2-0.5,0.4-0.9,0.7c-0.4,0.3-0.8,0.5-1.3,0.7c-0.5,0.2-1.1,0.3-1.7,0.3
			c-0.8,0-1.4-0.2-1.8-0.5c-0.5-0.3-0.7-0.9-0.7-1.7c0-0.3,0-0.5,0.1-0.8s0.1-0.5,0.1-0.8c0.4-0.1,0.8-0.2,1.3-0.3
			c0.5-0.1,1-0.3,1.6-0.5c0.6-0.2,1.1-0.4,1.6-0.7c0.5-0.3,1-0.6,1.5-0.9c0.4-0.3,0.8-0.7,1.1-1.1c0.3-0.4,0.4-0.8,0.4-1.3
			c0-0.6-0.2-1.1-0.6-1.4C154.6,119.8,154.1,119.6,153.5,119.6z M150.9,123.8c-0.6,0.7-1.6,1.3-3.1,1.7c0.1-0.3,0.3-0.6,0.5-1.1
			c0.2-0.5,0.5-1,0.7-1.4c0.3-0.5,0.6-0.9,0.9-1.2c0.3-0.4,0.7-0.5,1-0.5c0.2,0,0.4,0,0.5,0.1c0.2,0.1,0.2,0.2,0.2,0.5
			C151.7,122.4,151.4,123.1,150.9,123.8z"/>
		<path class="st0" d="M169.4,111.7c-0.5-0.5-1.1-1-1.9-1.3c-0.7-0.3-1.5-0.5-2.4-0.5c-0.9,0-1.7,0.2-2.6,0.5
			c-0.8,0.4-1.6,0.8-2.2,1.3c-0.7,0.5-1.2,1-1.6,1.4c-0.4,0.5-0.6,0.8-0.6,1c0,0.1,0,0.1,0,0.2c0,0.1,0.1,0.1,0.2,0.1
			c0.1,0,0.2-0.2,0.6-0.5c0.3-0.4,0.7-0.8,1.2-1.2c0.5-0.4,1-0.8,1.6-1.2c0.6-0.4,1.2-0.5,1.9-0.5c0.7,0,1.3,0.1,1.8,0.4
			c0.5,0.3,0.9,0.7,1.1,1.1c0.3,0.5,0.5,1,0.6,1.6c0.1,0.6,0.2,1.2,0.2,1.8c0,0.8-0.1,1.7-0.3,2.7c-0.2,1-0.4,2.1-0.8,3.2
			c-0.3,1.1-0.7,2.2-1.1,3.2c-0.4,1.1-0.9,2-1.3,2.8c-0.5,0.8-0.9,1.5-1.4,2c-0.5,0.5-0.9,0.8-1.4,0.8c-0.5,0-0.8-0.2-1-0.5
			c-0.2-0.3-0.3-0.8-0.3-1.4c0-1.1,0.2-2.2,0.5-3.1c0.4-1,0.8-1.8,1.4-2.6c0.6-0.8,1.2-1.4,1.9-1.9c0.7-0.5,1.4-0.8,2.1-1
			c0.2,0,0.3-0.2,0.3-0.3c0-0.1-0.1-0.2-0.2-0.2c-0.2-0.1-0.3-0.1-0.5-0.1c-0.5,0-1.2,0.1-1.8,0.3c-0.7,0.2-1.4,0.5-2.1,0.8
			c-0.7,0.4-1.4,0.8-2,1.3c-0.7,0.5-1.3,1.1-1.8,1.8c-0.5,0.7-0.9,1.4-1.2,2.1c-0.3,0.8-0.5,1.6-0.5,2.4c0,1.3,0.3,2.1,1,2.6
			c0.7,0.5,1.5,0.7,2.7,0.7c1,0,2.1-0.3,3-0.8c1-0.5,1.9-1.2,2.7-2c0.8-0.8,1.6-1.8,2.3-2.9c0.7-1.1,1.3-2.2,1.8-3.4
			c0.5-1.2,0.9-2.3,1.1-3.5c0.3-1.2,0.4-2.2,0.4-3.2c0-0.9-0.1-1.7-0.4-2.5C170.3,112.9,169.9,112.2,169.4,111.7z"/>
		<path class="st0" d="M193,124.9c-0.5,0.6-1,1.2-1.5,1.8c-0.5,0.6-1,1.1-1.6,1.6c-0.6,0.5-1.2,0.9-1.8,1.2
			c-0.7,0.3-1.4,0.5-2.3,0.5c-0.8,0-1.4-0.1-2-0.4c-0.6-0.3-1-0.7-1.4-1.1c-0.4-0.5-0.6-1-0.8-1.6c-0.2-0.6-0.3-1.3-0.3-2
			c0-1.5,0.2-2.9,0.6-4.4c0.4-1.5,1-2.8,1.7-4c0.7-1.2,1.6-2.2,2.5-2.9c0.9-0.8,1.9-1.1,3-1.1c0.8,0,1.4,0.2,1.9,0.6
			c0.5,0.4,0.9,0.9,1.2,1.5c0.3,0.6,0.5,1.4,0.6,2.2c0.1,0.8,0.2,1.7,0.2,2.7h0.7l1.8-6.9c-0.6-0.3-1.3-0.6-2.1-0.8
			c-0.9-0.2-1.8-0.3-2.9-0.3c-1.8,0-3.5,0.4-5.2,1.2c-1.6,0.8-3.1,1.9-4.3,3.2c-1.2,1.3-2.2,2.8-3,4.5c-0.7,1.7-1.1,3.4-1.1,5.2
			c0,2.1,0.6,3.8,1.7,5c1.1,1.2,2.7,1.8,4.7,1.8c0.9,0,1.8-0.1,2.7-0.4c0.9-0.2,1.7-0.6,2.5-1.1c0.8-0.5,1.7-1.2,2.5-2
			c0.8-0.8,1.6-1.9,2.5-3.1L193,124.9z"/>
		<path class="st0" d="M206.5,122.9c0-1.1-0.3-2-1-2.5c-0.6-0.5-1.5-0.8-2.6-0.8c-1.1,0-2.2,0.3-3.3,0.8c-1.1,0.6-2.1,1.3-3,2.2
			c-0.9,0.9-1.6,1.9-2.2,3c-0.6,1.1-0.8,2.2-0.8,3.3c0,1,0.4,1.7,1.1,2.1c0.7,0.4,1.7,0.6,2.8,0.6c0.6,0,1.2-0.1,1.8-0.3
			c0.7-0.2,1.3-0.6,2-1c0.7-0.4,1.3-0.9,1.9-1.5c0.6-0.6,1.2-1.2,1.7-1.8c0.5-0.7,0.9-1.4,1.2-2.1
			C206.4,124.3,206.5,123.6,206.5,122.9z M202.6,124c-0.1,0.5-0.2,1.1-0.4,1.7c-0.2,0.6-0.4,1.2-0.7,1.8c-0.3,0.6-0.5,1.2-0.8,1.7
			c-0.3,0.5-0.6,0.9-1,1.2c-0.4,0.3-0.7,0.5-1.1,0.5c-0.3,0-0.5-0.1-0.6-0.2c-0.2-0.1-0.3-0.3-0.4-0.5c-0.1-0.2-0.2-0.4-0.2-0.7
			c0-0.2-0.1-0.5-0.1-0.6c0-0.4,0.1-0.8,0.2-1.4c0.1-0.6,0.3-1.1,0.5-1.8c0.2-0.6,0.4-1.2,0.7-1.8c0.3-0.6,0.5-1.2,0.8-1.6
			c0.3-0.5,0.6-0.9,1-1.2c0.3-0.3,0.7-0.5,1-0.5c0.3,0,0.5,0.1,0.6,0.2c0.2,0.1,0.3,0.3,0.4,0.5c0.1,0.2,0.2,0.5,0.2,0.7
			c0,0.2,0.1,0.5,0.1,0.7C202.8,123,202.7,123.5,202.6,124z"/>
		<path class="st0" d="M218.1,123.3c0.2-0.2,0.3-0.5,0.4-0.8c0.1-0.3,0.1-0.6,0.1-0.8c0-0.6-0.2-1.1-0.5-1.5
			c-0.4-0.4-0.8-0.6-1.4-0.6c-0.5,0-1,0.2-1.5,0.6c-0.5,0.4-1,0.8-1.5,1.3c-0.5,0.5-0.9,1.1-1.3,1.6c-0.4,0.6-1,1.4-1,1.4l1.9-4.5
			h-3.7l-3.8,11.5h3.5c0.1-0.4,0.3-0.8,0.4-1.3c0.2-0.5,0.3-1,0.5-1.5c0.2-0.5,0.4-0.9,0.5-1.3c0.2-0.4,0.3-0.7,0.4-0.9
			c0.1-0.3,0.3-0.6,0.5-1.1c0.2-0.5,0.5-0.9,0.7-1.4c0.3-0.5,0.6-0.9,1-1.2c0.4-0.3,0.7-0.5,1.1-0.5c0.1,0,0.2,0,0.3,0
			c0.1,0,0.2,0.1,0.3,0.1c0,0.5,0.1,1,0.3,1.3c0.2,0.3,0.6,0.5,1.2,0.5c0.3,0,0.6-0.1,0.8-0.2C217.7,123.8,217.9,123.6,218.1,123.3z
			"/>
		<path class="st0" d="M232.9,128.5c-0.1,0-0.2,0.1-0.3,0.2c-0.2,0.2-0.3,0.3-0.6,0.5c-0.2,0.2-0.5,0.4-0.8,0.5
			c-0.3,0.2-0.6,0.2-1,0.2c-0.2,0-0.5-0.1-0.8-0.2c-0.3-0.1-0.4-0.3-0.4-0.7c0-0.3,0.1-0.7,0.2-1.2c0.1-0.5,0.3-1,0.5-1.6l2.5-6.4
			h-3.5l-0.2,0.8c-0.1-0.3-0.4-0.6-0.7-0.8c-0.4-0.2-0.7-0.3-1-0.3c-0.3,0-0.7,0.1-1.2,0.4c-0.6,0.3-1.2,0.6-1.9,1
			c-0.7,0.4-1.4,1-2.2,1.6c-0.7,0.6-1.4,1.3-2,2c-0.6,0.7-1.1,1.5-1.5,2.3c-0.4,0.8-0.6,1.7-0.6,2.5c0,0.4,0.1,0.8,0.2,1.1
			c0.2,0.3,0.4,0.5,0.6,0.7c0.3,0.2,0.6,0.3,0.9,0.4c0.3,0.1,0.7,0.1,1.1,0.1c0.5,0,1.1-0.2,1.7-0.5c0.6-0.3,1.2-0.7,1.8-1.1
			c0.6-0.4,1.1-0.9,1.6-1.4c0.5-0.5,0.9-1,1.2-1.4l-1.5,3.1c0.5,0.5,0.9,0.8,1.4,1s1.1,0.3,1.7,0.3c0.5,0,0.9-0.1,1.4-0.2
			c0.5-0.1,0.9-0.3,1.3-0.5c0.4-0.2,0.8-0.4,1.1-0.7c0.3-0.2,0.6-0.5,0.7-0.7c0,0,0.1-0.1,0.2-0.2c0.1-0.1,0.2-0.2,0.3-0.3
			c0.1-0.1,0.2-0.2,0.2-0.3c0.1-0.1,0.1-0.2,0.1-0.2C233.2,128.6,233.1,128.5,232.9,128.5z M226.9,124.8c-0.3,0.8-0.7,1.5-1.1,2.3
			c-0.5,0.7-1,1.4-1.5,1.9c-0.6,0.5-1.2,0.8-1.8,0.8c-0.5,0-0.8-0.1-1-0.4c-0.2-0.3-0.2-0.6-0.2-1.1c0-0.6,0.1-1.2,0.4-1.8
			c0.2-0.6,0.5-1.3,0.9-1.9c0.4-0.6,0.8-1.2,1.2-1.8c0.4-0.6,0.8-1,1.2-1.4c0.3,0,0.6,0,0.9,0.1c0.3,0.1,0.6,0.1,0.8,0.3
			c0.3,0.1,0.5,0.3,0.7,0.5c0.2,0.2,0.3,0.4,0.4,0.7C227.4,123.4,227.2,124,226.9,124.8z"/>
		<path class="st0" d="M241.6,128.4c-0.1,0-0.2,0.1-0.3,0.3c-0.2,0.2-0.3,0.4-0.6,0.6c-0.2,0.2-0.5,0.4-0.8,0.6
			c-0.3,0.2-0.7,0.3-1.1,0.3c-0.3,0-0.6-0.1-0.9-0.3c-0.3-0.2-0.5-0.4-0.5-0.8c0-0.3,0.1-0.7,0.2-1.1c0.1-0.4,0.3-0.9,0.5-1.4
			c1-2.6,2-5.3,3.1-8.1c1-2.8,2-5.6,3.1-8.4h-3.7c-1.1,3-2.2,6-3.2,8.9c-1,2.9-2.1,5.9-3.1,8.9c-0.1,0.3-0.2,0.6-0.3,1
			c-0.1,0.3-0.2,0.7-0.2,1c0,0.3,0.1,0.6,0.2,0.9c0.2,0.3,0.4,0.5,0.6,0.7c0.3,0.2,0.6,0.3,0.9,0.4c0.3,0.1,0.6,0.1,0.9,0.1
			c0.6,0,1.3-0.1,1.9-0.4c0.6-0.3,1.2-0.6,1.7-1c0.5-0.4,0.9-0.7,1.3-1.1c0.3-0.4,0.5-0.6,0.5-0.7
			C241.9,128.4,241.8,128.4,241.6,128.4z"/>
	</g>
	<g>
		<path class="st0" d="M109.1,105.2c-5.5,1.2-9,1.7-17.2-2.3c-8.2-3.9-30.5-0.8-34.9-0.1c-4.4,0.7-10.7-1.2-14.8-1.6
			c-4.1-0.4-5.5,4.2-9.5,3.4c-4.1-0.8-6.2-1.2-6.1,3c0.1,4.1-4.5,4.5-2.1,8c0.9,1.3,2.9,1.2,4.6,2.1c1.7,0.9,3,7.4,11.6,8.4
			c8.5,1,20.1,8,34.2,8.3c14.1,0.2,15.2-4.8,23.7-7.5c8.4-2.7,6.9-13.8,14.1-17.5C119.8,105.6,114.6,104,109.1,105.2z"/>
		<g>
			<path class="st1" d="M136.6,52.5c-0.8-0.2-1.7-0.7-2.9-0.6c-0.1,0.3-0.3,0.5-0.5,0.7c-0.2,0.2-0.8,0.4-1.1,0.4
				c-0.2,0-0.2-0.2-0.4-0.1c-0.2,0.1-0.2,0.4-0.4,0.5c-0.3,0.1-1.4,0.3-1.7,0.2c-0.1,0-0.2-0.1-0.4-0.1c-0.4,0.1-0.7,0.3-1,0.4
				c-0.5,0.1-1,0.1-1.3,0.2h-0.8c0,0-0.2,0.2-0.3,0.2c-0.4,0-0.8-0.1-1.1-0.1c-0.5,0.1-0.6,0.6-0.9,0.8c-0.5,0.3-1.1,0.5-1.6,0.8
				c-0.1,0.1-0.3,0.3-0.4,0.4c-0.5,0-0.9,0-1.4,0.1c-2.5,0.6-3.8-0.1-6.1-0.6c-1-0.2-2.2,0.6-2.8,0.4c-0.3,0-0.3-0.1-0.5-0.2
				c0-1.1,0.6-1.5,0.9-2.3c0.3-0.6,0.5-1.4,0.9-1.8c1-1.1,2.8-1.6,4.1-2.5c0.4-0.3,0.6-0.9,0.8-1.3c0.2-0.3,0.4-0.4,0.6-0.6
				c0.3-0.3,0.4-0.7,0.7-0.9c0.8-0.6,1.7-1,2.5-1.6c0.3-0.2,0.5-0.7,0.8-0.9c0.3-0.2,0.6-0.2,0.9-0.4c0.2-0.2,0.2-0.4,0.4-0.6
				c0.3-0.5,0.8-1,1.1-1.4c0.4-0.6,1.3-0.9,1.9-1.4c0.1-0.1,0.3-0.5,0.5-0.6c0.3-0.2,1.1-0.5,1.7-0.4c0.2,0.1,0.6,0.3,0.8,0.2
				c0.6-0.3,0.6-1.8,1-2.4c0.2-0.3,1.3-1.7,1.6-1.8c0.3-0.2,0.6-0.2,0.8-0.5c0-0.2,0-0.5,0.1-0.7c0.1-0.2,0.3-0.4,0.4-0.6
				c0.1-0.2,0-0.6,0.1-0.8c-0.1-0.6-2.6-1-3.1-1.1c-0.5,1.1-1.7,2.8-2.6,3.5c-0.2,0.2-0.5,0.1-0.7,0.3c-0.5,0.3-1,0.7-1.6,0.9
				c-0.3,0.1-0.6,0.1-0.8,0.4c-0.5,0-0.7-0.1-1-0.2c0-0.3,0-0.2,0.1-0.4c-0.1,0-0.1,0-0.3-0.1c-0.3-1.1-0.5-2.4-0.8-3.9
				c-0.2-0.9,0.2-1.7-0.1-2.4c-0.3-0.1-1.3-0.5-1.6-0.3c-0.7,0.2-0.5,1.1-0.8,1.7c-0.1,0.3-0.4,0.6-0.6,0.9
				c-0.2,0.4-0.2,1.8-0.1,2.1c0,0.2,0.4,0.7,0.4,0.9c0.2,0.7,0.4,2.8,0.1,3.7c-0.6,1.9-2.4,2.7-3.8,3.8c0,0.1-0.1,0.2-0.1,0.3
				c-0.4,0.4-1.5,1.2-2,1.3c-0.2,0-0.6-0.2-0.8-0.1c-0.4,0.1-0.3,0.3-0.5,0.5c-0.4,0.3-0.8,0.4-1.2,0.7c-0.4,0.3-0.6,0.8-1.1,1
				c-0.9,0.3-1.4-0.3-2.3-0.1c-1,0.3-1.6,0.9-2.3,1.3c-0.1,0.5-0.7,2.1-0.4,2.7c0,0,0.1,0,0.1,0.1c0.2,0.3,0.4,1.1,0.2,1.6
				c-0.3,1-0.8,2.1-1.2,3c-0.5,1.4-0.7,2.8-1.3,4c-0.3,0.7-0.8,1.5-1.3,2.1c-0.4,0.6-1,1-1.4,1.6c-0.6,0.8-0.9,1.6-1.3,2.5
				c-0.3,0.7-0.8,1.3-1.1,2c-0.5-0.1-0.7-1.6-0.9-2.1c-0.7-2-0.4-3.8,0.1-5.6c0.2-0.7,0.2-1.2,0.4-1.8C98,57,99,55.1,99,55
				c0-0.4,0.2-0.9,0.1-1.5c-0.3-1.2,0-2.7,0.3-3.8v-0.6c0.2-0.8,0.3-1.9,0.5-2.7c0.1-0.5,0.1-1.1,0-1.4c-0.1-0.5,0.2-2.5,0.4-2.9
				c0.3-0.9,1.6-2.4,2.3-3.1c1.2-1.2,3.8-1.8,5.3-3c0.4-0.3,0.6-0.8,0.9-1.1c0.2-0.2,0.6-0.3,0.8-0.6c0.3-0.4,0.5-1,0.9-1.3
				c0.5-0.3,1-0.5,1.5-0.8c0.7-0.5,0.9-1.5,1.8-1.8c0.1-0.1,0.1,0,0.2-0.1c0.1-0.5,0.6-0.7,0.9-0.9c0.4-0.3,0.6-0.9,1-1.1
				c0.2-0.1,0.5,0,0.6-0.2c0.1-0.2,0.2-0.5,0.3-0.7c0.1,0,0,0,0-0.1c-0.2-0.5-1.5-1-1.9-1.4c-1.1,0-0.9,0.2-1.5,0.6
				c-0.5,0.4-1.4,0.5-1.9,0.9c-0.4,0.3-0.7,1.1-1.1,1.5c-0.3,0.4-0.8,0.5-1.1,0.8c-0.7,0-0.9-0.2-1.5-0.2c-0.4,0.5-1.5,1.2-1.8,1.8
				h-0.3c-0.1,0.6-0.8,0.6-1.1,0.9c-0.3,0.3-0.5,0.6-0.8,0.8c-1.2,0.9-2.8,1.3-4,2.3c-0.3,0-0.4,0-0.6-0.1c-0.7-0.3-0.4-1.5-0.6-2.4
				c-0.4-1.8,0.4-4.9,0.9-6.1c-0.3-0.3-0.4-0.9-0.6-1.2c-0.4-0.5-1.2-0.7-1.7-1.2c-0.5,0.1-0.8,1.1-1.1,1.5c-1,1.6-1.6,3.2-2.1,5.4
				c-0.1,0.5,0,1.2,0.1,1.7v0.8c0.3,1.1,0.5,3.9,0.1,5.2c-0.5,1.7-1,3.6-1.4,5.3c0,0.5,0,0.9-0.1,1.4c-0.3,1.3-0.5,3-0.8,4.3
				c-0.1,0.5,0,0.8-0.1,1.3c-0.3,0.9-0.5,2-0.8,3c-0.3,0.9-0.8,1.9-0.8,3h-0.2c-0.7-1.4-1.1-2.9-1.6-4.7v-0.8
				c-0.3-1.2-0.1-2.8-0.4-4.1c-0.2-0.8,0.1-1.9-0.1-2.6c-0.3-1.6,0.5-3,0.3-4.4c-0.3-2.4-1-4.2-0.9-6.8c-1.2,0-3.1,0.1-4.1-0.2
				c-0.5,1.4-0.2,3.2-0.5,4.7v2.2c-0.1,0.3,0,1-0.1,1.6c-0.3,1.2-0.6,2.6-0.6,4c0,1.1,0.1,2.2,0.2,3.2c0,0.4-0.2,0.7-0.1,1.2
				c0.2,0.8,0.3,2.5,0,3.1c-0.1,0.3-0.5,0.4-0.6,0.6c-0.3,0-0.5,0.1-0.8,0.1c-0.4-3.4-1.2-6.7-2.1-9.5c-0.3-1-0.2-2.1-0.4-3.2
				c-0.2-0.8,0-2.1,0.1-2.8c0-1.2,0-2.4,0.1-3.5c0.2-0.9,0.5-1.7,0.7-2.5c0.2-0.6,0.2-1.2,0.6-1.7c0.8-1.3,1.8-2.6,3-3.4
				c0.5-0.3,1-0.4,1.6-0.6c0.4-0.2,0.8-0.7,1.2-0.9c0.1,0,0.3-0.1,0.4-0.1c1.1-1,1.9-2.3,2.8-3.5c0.6-0.8,1.3-1.6,1.8-2.5
				c0.1-0.2,0.4-0.7,0.4-1c-0.2-0.9-1.8-1.3-2.5-1.8c-0.6,0.1-1.5,1.8-1.9,2.3c-0.3,0.3-0.5,0.6-0.8,0.8c-0.1,0-0.1,0-0.2,0.1v0.2
				c-0.7,0.9-1.8,2.2-2.8,2.8c-0.6,0.4-1.3,0.5-1.9,0.8c-0.6,0.3-1.7,1.4-2.5,1c-0.7-0.2-0.8-1.2-1.1-1.8c-0.3-0.8-0.6-1.6-0.8-2.6
				c-0.2-1,0.3-2.3,0.2-3c-0.2-1.1-0.6-2.7-0.2-3.9c-0.9-0.3-2.4-0.3-3.2-0.3c0,1-0.1,3.3-0.7,3.7c-0.1,0.1-0.3,0-0.4-0.1
				c-0.5,0.2-1,0.6-1.3,1c0,0.2,0.1,0.3,0.1,0.5c0,0.1-0.2,0.3-0.2,0.5c0.2,1.5,1.4,2.5,1.9,3.8c0,0.3,0.1,0.5,0.1,0.8
				c0.3,0.8,0.6,1.7,0.8,2.7c0.5,2-0.2,3.9-0.7,5.3c-0.2,0.7-0.2,1.3-0.4,2c-0.2,0.8-0.6,1.6-0.8,2.5c-0.2,0.7-0.1,1.4,0,2
				c0,1.4,0,2.7-0.1,4.1c-0.1,0.2-0.2,0.4-0.3,0.6c-1.2,0.2-2.9-0.9-3.7-1.4c-1.3-0.8-3-1.6-3.7-3c-0.6-1-0.9-2.2-1.2-3.4
				c-0.2-0.7,0-1.8,0.1-2.3v-1.3c0.2-0.9,0.2-1.8,0.5-2.7c0.3-1.1,1-2.1,1.3-3.2c0.2-0.9-0.1-2.3-0.3-3c0-0.4-0.1-0.7-0.1-1.1
				c-0.7-1.9-1.5-3.8-2-5.9c-0.2-0.7,0.2-1.4,0.3-1.8c0.2-1,0.1-2.1-0.1-2.8c-0.1-0.4,0-0.9-0.1-1.1c-0.1-0.2-0.2-0.2-0.3-0.4
				c-0.7,0-1.2,0.1-1.8,0.2c-0.2,1.1-0.1,2.4-0.3,3.6c0,0.2,0.1,0.3,0.1,0.6c-0.3,1.3-0.5,2.6-0.5,4.2V19c0.2,0.8,0.1,1.7,0.3,2.5
				c0.3,1.2,0.5,2.7,0.1,4.2c-0.2,0.9-0.4,1.8-0.8,2.6c-0.1,0.3-0.5,0.7-0.6,1v0.5c-0.2,0.6-0.4,1.2-0.8,1.6
				c-0.1,0.1-0.2,0.1-0.4,0.1c-1-0.1-2.2-2.2-2.2-3.4c0,0,0,0-0.1-0.1c-0.7,0-1.2,0.2-1.9,0.4c-0.9,0.2-1.7,0-2.5,0
				c0,0.3,0,0.5-0.1,0.6c-0.1,0.2-0.1,0.2-0.3,0.4c-0.9-0.1-1.5-0.8-2.1-1.3c-1.8-1.2-3.1-2.7-4-4.9c-0.3-0.7-0.3-1.4-0.6-2.1
				c-0.5-1.3-1.2-2.6-1.7-3.7c-0.3-0.6-0.4-1.4-0.8-1.9c-0.2-0.1-0.7,0.1-0.9,0.2c-0.8,0.3-1.6,0.4-2.3,0.8c0,0.6,0.3,0.9,0.4,1.3
				c0.4,1.2,0.9,2.3,1.3,3.4c0.1,0.4,0.3,1,0.4,1.3c0.2,0.7-0.1,1.5,0,2.1v1c0.1,0.4,0.4,0.6,0.6,0.9c0,0.1,0,0.3,0.1,0.4
				c0.2,0.2,0.4,0.4,0.6,0.6c0.2,0.2,0.1,0.5,0.3,0.7c0.3,0.4,0.9,0.8,1.3,1.1c1.1,0.8,2.1,1.8,3.2,2.5c0.6,0.4,1.3,0.6,1.9,1
				c0.7,0.4,1.2,1,1.9,1.4c0.5,0.3,1,0.3,1.5,0.6c0.5,0.2,1.1,0.7,1.6,1c0.5,0.3,1.1,0.4,1.6,0.8c1.1,0.8,1.9,2.8,2.5,4
				c0.5,0.9,1.4,1.7,1.4,3c-0.2,0.2-0.3,0.5-0.5,0.7c-0.5,0.4-1.2,0.8-1.8,1.1c-0.3,0.1-0.6,0.1-0.8,0.3c-0.8,0.4-1.7,1.1-2.5,1.5
				c-0.5,0.2-1.5,0.3-1.9,0.6c-0.2,0-0.3,0-0.4-0.1c-0.4-2-0.3-4.4,0.4-6.1c0.1-0.3,0.5-0.6,0.6-0.9c0.1-0.3,0.1-0.6,0.2-0.9
				c0.2-0.6,0.9-1.3,0.4-1.9c-0.1-0.4-0.4-0.2-0.6-0.4c-0.2-0.2-0.3-0.7-0.5-0.9c-0.5-0.4-0.7,0.4-1,0.6c-0.2,0.1-0.4,0.2-0.6,0.3
				c-0.1,0.5-0.2,1.1-0.4,1.6c-0.3,0.6-0.7,1.3-0.9,2c0,0.4-0.1,0.8-0.1,1.1c-0.2,0.6-0.4,1.2-0.6,1.8c0,0.7-0.1,1.4-0.1,2.1
				c-0.1,0.4-0.3,0.9-0.4,1.3c-0.1,0.3,0,0.6-0.1,0.8v0.1c-0.9-0.1-2.4-0.8-3-1.3l-0.6-0.6c-0.2-0.1-0.3,0-0.4-0.1
				c-1,0.1-1.4,0.8-2,1.2c0.1,0.6,0.6,0.8,0.9,1.2c0.4,0.5,0.3,1.4,0.6,1.8c0.2,0.3,0.6,0.4,0.8,0.6c0.2,0.2,0.2,0.5,0.5,0.6
				c1.3,0.5,3.2,0.3,4.2,1.1c0.2,0.2,0.3,0.6,0.5,0.8c0.4,0.6,0.9,1.3,1.4,1.8c2.1,2.1,4.7,3.6,6.1,6.4c0.6,1.2,0.9,2.8,1.3,4.2
				c0.2,0.6,0,1.5,0.4,2V68c-0.7-0.1-1.4-1.6-1.8-2.1c-0.6-0.9-1.4-1.6-2-2.5c-0.7-0.9-1.4-1.9-2.3-2.6c-1.1-0.8-2.1-1.7-3.3-2.5
				c-0.6-0.4-1.4-0.5-2-0.8c-1.7-0.9-3.4-1.9-4.9-3c-1.2-0.9-1.6-2.4-2.3-3.8c-0.1-0.3-0.4-0.6-0.6-0.9c-0.3-0.6-0.2-1.2-0.4-1.9
				c-0.3-1.2-0.4-2.6-0.4-4.1v-1.2c0.2-0.8,0.3-1.8,0.1-2.7c-0.1-0.8,0.3-2,0.1-2.9c-0.3-1.4-1-2.5-1.7-3.5c-0.2-0.3-0.7-0.6-0.9-1
				c-1-1.4-1.6-2.9-2.8-4.2c-0.3-0.3-0.7-0.6-1-0.9c-0.4-0.5-0.8-1.1-1.3-1.6c-0.4-0.4-0.9-0.7-1.3-1.2c-0.4-0.5-0.7-1.1-1.1-1.6
				c-0.2-0.2-0.4-0.4-0.6-0.6c-0.4-0.6-0.4-1.4-1-1.8c-0.2-0.1-0.7,0.1-1.1,0.1c-0.4-0.1-2.3-0.9-2.5-0.8c-0.2,0.1-0.7,1-0.9,1.3
				c0.1,0.7,0.5,0.7,0.8,1.1c0.2,0.2,0.3,0.5,0.5,0.7c0.5,0.4,0.7,0.5,1.1,1.1c0.2,0.3,0.7,0.8,0.4,1.3c0.1,0.5,0.1,0.2,0.5,0.4
				c0.3,0.2,0.1,0.5,0.2,0.6c0.1,0.2,0.6,0.2,0.8,0.4c0.1,0.1,0.9,1.2,1,1.3c0.1,0.2,0,0.5,0.1,0.6c0.2,0.4,0.6,0.5,0.6,1.1
				c1.3,0.2,1.9,1.9,2.5,3c0.9,1.8,2.8,3.2,2.1,6.1c0,0.2-0.1,0.6-0.2,0.8c-0.1,0-0.1,0-0.2,0.1c0,0.1,0.1,0.4,0.1,0.6
				c-0.1,0.6,0,2.2-0.4,2.7c-0.2,0.6-1.2,0.9-2,0.6c-0.6-0.2-1.1-0.7-1.6-1c-0.3-0.2-0.6-0.2-0.9-0.4c-0.2-0.2-0.3-0.4-0.5-0.6h-0.5
				c-0.3-0.1-0.7-0.3-0.9-0.5c-0.7,0-0.7,0.7-1,1.1c0.4,0.6,1.7,1.8,2.3,2.2c0.4,0.2,0.8,0.2,1.2,0.4c0.3,0.3,0.7,0.7,1,1
				c0.4,0.3,1,0.3,1.4,0.6c0.1,0.1,0.2,0.2,0.4,0.4c0.3,0.1,0.5,0,0.7,0.1c1.4,0.9,1.4,3.7,2,5.5c0.2,0.8,0.8,1.5,0.7,2.4
				c-1.4,0.6-3.5-0.4-4.7-0.8c-2.6-0.9-5.1-1.4-7.1-2.8c-0.1-0.1-0.2-0.3-0.4-0.4c-0.5-0.5-1.3-0.8-1.7-1.4
				c-0.2-0.3-0.4-0.9-0.6-1.1c-0.8-0.5-2-0.6-3-1c-0.6-0.2-1.2-0.8-1.6-1.2c-0.9-0.8-2.6-2-3.2-3c-0.2-0.3-0.6-1.3-0.4-1.6
				c0.1-1.6,0-1-0.9-1.5c-1.1,0-1.3,0.3-1.6,1.1v0.9c-0.1,0.3-0.4,0.5-0.5,0.7c-0.4,0.6-0.5,1.4-0.6,2.2c0.7,0.6,1.8,0.7,2.6,1.2
				c1.2,0.8,2.3,1.7,3.4,2.7c1,0.9,1.5,2,2.3,3.1c0.3,0.4,0.8,0.6,1.3,0.9c0.3,0.2,0.5,0.6,0.8,0.8c0.2,0.1,0.5,0.1,0.7,0.3
				c0.5,0.3,0.3,0.9,0.6,1.3c0.3,0.4,1.3,0.3,1.8,0.6c0.4,0.3,0.9,0.7,1.3,1.1c0.3,0.2,0.7,0.2,0.9,0.4c0.1,0.2,0.2,0.3,0.3,0.5
				c0.4,0.3,1,0.4,1.6,0.6c0.3,0.1,0.5,0.4,0.9,0.6c0.1,0.3,0.1,0.8,0.1,1c0.4,1,2.2,0.1,3.2,0.4c0.8,0.3,1.2,1,2,1.3
				c0.6,0.2,1.3-0.2,1.7-0.4c0.5-0.2,3.5-0.4,4.2-0.2c0.5,0.1,1.3,0.2,1.8,0.4c3.5,1.4,7.8,4.2,9.3,7.6c0.2,0.5,0.7,1.1,0.9,1.6
				c0.1,0.3,0.2,0.6,0.3,0.8c0.1,0.2,0.5,0.7,0.4,1.2c-0.1,0.5-0.6,0.5-1,0.8c-0.4,0.2-0.7,0.6-1.1,0.8c-0.6,0.2-2.4,0.3-3,0.1
				c-0.7-0.3-1.3-0.9-1.9-1.2c-0.4-0.2-0.7-0.2-1.1-0.4c-0.9-0.5-1.5-1.5-2.5-2c-0.3-0.1-1.2-0.5-1.5-0.5c-0.5,0.1-1.1,0.2-1.6,0.1
				c-0.5-0.1-1.1-0.4-1.6-0.6c-0.4-0.1-1.2,0-1.5,0.1c-0.7,0.2-1.4,0.1-2,0.2c-0.4,0.1-0.9,0.5-1.3,0.6c-0.8,0.2-1.6,0.2-2.3,0.5
				c0,0.2,0,0.3-0.1,0.5c-0.6,0.2-1.4,0.7-1.6,1.2c-0.1,0.2-0.1,0.6-0.2,0.8c-0.2,0.4-1,0.7-1.3,1c-0.2,0.2-0.2,0.4-0.4,0.6
				c-0.8,0.5-1.8,0.5-2.4,0h-1.3c-0.2,0.1,0.1,0.3-0.4,0.4c-0.1,0.3-0.1,0.8-0.3,1.1c0.2,0.5,0.7,0.2,1.2,0.4c0.1,0,0.5,0.3,0.6,0.4
				v0.1c0.3,0.2,1,0.4,1.3,0.6c0.2,0.1,0.3,0.3,0.4,0.4c0.2,0,0.3,0,0.5,0.1c0.7,0.4,0.7,1.9,1.1,2.6c0.9-0.1,1.7-0.4,2.5-0.7
				c0-0.9-0.5-1.9-0.1-2.8c0.9-2.5,4.6-4.3,8-3.2c1.3,0.4,2.2,1.2,3.2,1.8c1.5,0.9,3,1.5,4.3,2.5c0.3,0.3,0.5,0.7,0.8,1
				c0,0.4-0.1,1.2,0,1.6c0.1,0.3,0.3,0.6,0.4,0.8c0.2,0.7,0.1,1.1,0.4,1.7c0.3,0.7,0.8,1.5,1.1,2.2c0.3,0.7,0.4,1.7,0,2.3
				c0,0.8,0.5,1.1,1,1.4c0.2,1.3,0.4,4.7,1.5,5.1c0.2,0.1,0.7,0,0.9,0.1c0.3-0.1,0.3-0.2,0.6-0.3c0.2-0.1,0.1,0.1,0.4,0.1
				c0.1,0,0.2-0.1,0.2-0.1c0.6-0.2,0.9,0.4,1.3,0.5c0.2,0.1,0.2-0.1,0.4,0c0.9-0.2,1.1-1.3,1.6-1.8c0-0.4-0.2-1-0.4-1.1
				c-0.2,0-0.4,0-0.6-0.1l-0.1-0.4H51c-0.2-0.1-0.4-0.4-0.6-0.4c-0.5,0-0.9,0-1.1,0.3c-0.2-0.1-0.1,0-0.2-0.1
				c-0.1-0.2-0.8-2-0.5-2.5c0.1-0.3,0.5-0.2,0.8-0.4c0.2-0.1,0.2-0.4,0.4-0.6c0-1-0.6-1-0.9-1.6c-0.4-0.7-0.5-1.5-0.8-2.4
				c-0.3-0.8-1-1.9-0.7-3.2c0.3-1.4,1.3-1.8,2.6-2.3c0.7-0.3,1.4-0.6,2.2-0.8c1.2-0.3,2.4,0.1,3.2,0.5c1.5,0.8,2.7,1.9,3.6,3.2
				c0.5,0.7,0.9,1.5,1.6,2v0.2h0.2c0.6,1.2,1.9,1.9,2.3,3.2c0.2,0.7,0.1,1.3,0.3,2c0.2,0.7,0.1,1.8,0.1,2.7c0.2,2.4-0.3,4.5-1.1,6.1
				c-0.3,0.6-0.5,1.3-1,1.6c-0.3,0.2-0.6,0.1-1.1,0.3c-0.3,0.1-0.6,0.3-0.9,0.4c-0.2,0.1-0.4-0.1-0.7,0c-0.1,0-0.2,0.2-0.2,0.3
				c-0.2,0.1-0.8,0.5-1.1,0.4c-0.1-0.1-0.1-0.2-0.4-0.2v-0.2c-0.9-0.1-1.5-1.2-2.4-1.3c-0.4-0.1-0.9,0.4-1.2,0.6c-0.5,0-1,0-1.6,0.1
				c-0.1,0-0.3-0.1-0.4-0.1c-0.2,0.1-0.2,0.4-0.4,0.5c-0.3,0.2-0.6,0.1-0.8,0.3c-0.4,0.3-0.6,1.2-0.9,1.6c0,0.3,0.2,0.5,0.4,0.7
				c0.5,0.4,1.3,0.5,1.9,0.8c0.2,0.1,0.4,0.4,0.6,0.5h0.2c0.2,0.2,0.3,0.6,0.6,0.8c0.3,0.2,0.8,0.4,1.1,0.6c0,0.2,0.1,0.2,0,0.4
				c0.1,0.2,0.4,0.5,0.6,0.6c0.1,0.1,0.4,0,0.5,0.1v0.4c0.1,0.1,0.2,0.1,0.3,0.2c0.1,0.3-0.1,0.3,0,0.6c0.2,0.5,0.8,1,1.1,1.5
				c0.2,0,0.8,0,1.1,0.1c0.2,0.1,0.2,0.4,0.4,0.5c0.1,0.1,0.3,0.1,0.5,0.2c0.3,0.2,0.7,0.4,1,0.6c0.5,0.3,0.6,0.7,0.8,1.2
				c0.3,1.5,1.3,2.8,2.6,3.7c1.1,0.7,2.4,1,3.7,1.2c0.4,0.1,0.9,0.1,1.3,0c0,0,0.1,0,0.1-0.1c0.1-0.1,0-0.2,0-0.2
				c-0.1-0.1-0.1-0.1-0.2-0.1c-0.4-0.1-0.9-0.2-1.3-0.4c-0.6-0.2-1.3-0.5-1.9-0.8c-0.5-0.3-1.1-0.5-1.6-0.8
				c-0.5-0.3-0.7-0.8-0.9-1.2c-0.2-0.3-0.3-0.6-0.4-1c-0.1-0.2-0.2-0.6,0-0.7c0.4-0.1,0.7,0.2,1,0.3c0.3,0.1,0.7,0.1,0.9,0.4
				c0.1,0.1,0,0.1,0.1,0.2h0.2c0.1,0.4,0.1,0.1,0.4,0.4c0,0.1,0,0.2,0.1,0.3h0.4c0.1,0.1,0.1,0.2,0.2,0.3c0.1,0.1,0.1,0,0.3,0
				c0.1,0.4,1.2,0.8,1.8,0.9v0.2c0.6-0.1,0.7,0.2,1.3,0.4h0.6c1,0.3,1.7,0.3,2.9,0.3c0,0.3,0,0.3-0.1,0.4v0.1c1.2,0,3.2-0.2,4.1-0.6
				h0.9c0.2-0.1,0.6-0.3,0.8-0.4c0.7-0.3,1.5-0.2,1.8-0.8c0.3,0,0.3,0,0.4,0.2c1-0.1,1-1.1,2.2-1.2v-0.2h0.2c0-0.3-0.2-0.7-0.4-0.8
				c0,0,0.3-0.5,0.3-0.5c0-0.3-0.2-0.5-0.5-0.5c0.1-0.2,1-0.6,1.3-0.7v-0.2c0,0,0.2,0,0.2,0c-0.1,0,0.2-0.4,0.3-0.4
				c0.1-0.1,0.3-0.2,0.4-0.4c0.3-0.6,0.4-1.1,1-1.4c0.7-0.4,1.4-0.4,2-1.1c0.2-0.2,0.3-0.6,0.3-1.1c0.4,0.9-0.1,2.2-0.9,2.8
				c-0.1,0.1-0.3,0.2-0.4,0.3c-0.1,0.1-0.1,0.2,0,0.3c0,0.1,0.1,0.1,0.2,0.1c0.9,0,1.4-0.6,1.8-1.3c0.2-0.3,0.4-0.5,0.4-0.9
				c0.1-0.5,0-1-0.1-1.4c-0.2-0.5-0.5-0.8-0.9-1.2c-0.1-0.1-0.3-0.4-0.6-0.6c0,0-0.1-0.1-0.1-0.1c0,0,0,0-0.1,0
				c-0.1,0-0.1-0.1-0.2-0.1c-0.3-0.1-0.5-0.1-0.8-0.2h-0.5c0-0.1,0-0.2-0.1-0.4c-0.1-0.2-0.4-0.5-0.5-0.8v-0.4c-0.2-0.5-0.6-1-1-1.3
				c0-1.5,0.9-2.4,1.6-3.5c0.8-1.3,1.5-2.4,2.4-3.7c0.4-0.6,1.2-1.1,1.7-1.8c0.9-1.2,1.8-2.1,2.8-3.2c0.3-0.3,0.4-0.8,0.7-1.1
				c0.4-0.6,1-1.1,1.5-1.7c1.6-2.1,3.6-4.3,6.3-5.2c1.6-0.6,3.8,0.1,5.2,0.4c1,0.3,2.2,0.1,3,0.6c0.7,0.4,1,1.2,1.6,1.6
				c0.2,0.1,0.5,0.1,0.7,0.2c0.7,0.3,1.7,0.7,2.3,1.3c2,0,0.4-2.7,0.4-3.6c0.5-0.1,1.1-0.4,1.8-0.2c1.2,0.3,2.3,0.9,3.5,1.2
				c0.7,0.2,2.3,0.2,2.9,0.5c0.6,0,1.3,0,1.6-0.1c0.1-0.8,0.2-1.6,0.2-2.7c-2.1-0.1-3.8-0.7-5.2-1.6c0-1.4,1.2-2.5,2-3.1
				c0.3-0.2,0.4-0.6,0.7-0.8c0.5-0.4,1.3-0.8,1.8-1.1c1.2-0.5,4.6-0.5,5.9,0.1c0.7,0.3,1.4,0.8,2,1.2c0.3,0.2,0.7,0.3,1,0.5
				c0.9-0.1,1.3-1.1,1.8-1.6c0.1-0.8-0.2-0.9-0.1-1.6h-0.2c0-0.7,0.8-1.4,1.3-1.7c-0.2-0.7-0.9-1-1.1-1.7c-0.6,0.1-0.7,0.4-1.1,0.6
				c-0.4,0.1-0.9,0.2-1.2,0.4c-0.7,0.2-1.5-0.3-1.9-0.4c-0.7-0.1-2.1,0.3-2.9,0.1c-0.2-0.1-0.3-0.2-0.5-0.4c0-0.3,0.1-0.8-0.1-1.1
				c-0.1-0.6-0.5-0.5-0.8-0.8c-1.6,0-2.1,1.5-3.1,2.2c-0.5,0.2-1,0.4-1.5,0.6c-0.3,0.2-0.8,0.6-1.1,0.8c-0.3,0.1-0.4,0-0.6,0.1
				c-0.1,0.1-0.2,0.3-0.4,0.4c-0.6,0.2-1.1,0.1-1.8,0.3c-0.3,0.1-0.5,0.3-0.8,0.3c-0.6,1.8-0.9,3.2-2.5,4c-0.4,0.2-1.5,0.5-2,0.1
				c-0.8-0.1-1-1.1-1.6-1.5c-0.5-0.3-1.1-0.1-1.8-0.2c-1-0.2-1.8-0.4-2.5-0.9c0.1-1.5,1-2.5,1.6-3.6c1.5-3,2.8-6.7,6.4-7.6
				c1.3-0.3,2.4,0.3,3.3,0.5c0.6,0.2,1-0.1,1.6,0c0.3,0.1,1.3,0.2,1.6,0.1c0.6-0.2,0.9-0.8,1.4-1.1c0.3-0.1,0.6,0.1,0.8,0
				c0.2-0.1,0.9-0.6,1.1-0.8c0.7-0.5,1.6-0.6,2.4-0.9c0.5-0.2,1-0.7,1.5-0.8c0.3,0,0.5,0,0.8-0.1c0.5-0.1,1.2-0.3,1.8-0.5
				c0.2-0.1,0.3-0.3,0.5-0.4c1-0.4,1.8-0.7,2.8-1.1c0.2-0.1,0.4-0.3,0.6-0.4c0.2,0,0.4,0,0.6-0.1c0.1,0,0.2-0.2,0.4-0.3
				c0.6-0.2,1.7,0,2.2-0.3c0.5-0.3,1.1-1.6,1.1-2.4C136.7,52.7,136.6,52.6,136.6,52.5z M72.3,58.7c-0.4,1.6-0.8,3.1-1.2,4.5
				c-0.1,0.6-0.2,1.3-0.3,1.9v1.7c-0.1,2.4,0.6,4.5,0.6,7v2c-0.2,0.7-0.4,1.7-0.7,2.4c-0.2,0.4-0.5,0.7-0.6,1.1
				c-0.2,0-0.4,0.1-0.5,0.2c-0.9-0.3-1.5-1.4-2.2-2c-1.2-1.2-2.5-2.8-3.2-4.5c-0.5-1.2-0.5-2.5-0.8-3.8c-0.7-2.6-1.1-5.9-2.1-8.3
				c-0.3-0.6-0.7-1.2-1.1-1.8c-0.3-0.5-0.3-1-0.6-1.5c-0.4-0.6-1-1-1.5-1.6c-0.2-0.2-0.2-0.4-0.4-0.6c-1-0.7-2.1-1.2-3-1.9
				c-0.1,0-0.1-0.2-0.1-0.3h-0.3c-0.2-0.1-0.6-0.4-0.8-0.6c-0.1-0.1,0,0-0.1-0.1c0.6-0.3,1.4-0.4,2-0.7c0.6-0.3,1.2-0.8,1.8-1.1
				c0.5-0.2,0.9-0.3,1.3-0.5c0.6-0.3,1.3-0.7,1.9-1c0.4-0.2,1.1-0.3,1.5-0.4c0.3-0.1,0.8,0.1,1-0.1c0.7,0.1,1.6,0,2.3,0.2
				c1.8,0.6,3.4,1.8,4.4,3.2c0.3,0.5,0.5,1,0.8,1.4C71.2,54.5,72.7,57,72.3,58.7z M87.7,73.2c-0.7,1.1-1.4,2.2-2,3.2
				c-0.3,0.4-0.4,0.9-0.6,1.3c-0.2,0.2-0.4,0.3-0.6,0.5c-0.8,1-1.7,1.9-2.5,2.9c-0.3,0.4-0.7,0.5-1,0.9h-0.3
				c0.6-1.4,0.8-2.9,1.4-4.3c0.8-1.9,1.8-3.6,2.7-5.4c0.3-0.6,0.2-2.5-0.1-2.8c-0.2-0.3-0.6-0.3-0.8-0.6c-1,0-1.2,0.6-2.3,0.6
				c-0.4-0.4-0.9-0.7-1.2-1.3c-0.9-1.8-0.5-4.7-0.1-6.6c0.2-0.8,0.1-1.5,0.2-2.3c2.5,0.2,3.9,2.9,4.9,4.5c1,1.5,2.8,3.1,3.5,4.8
				C89.6,70.2,88.2,72.3,87.7,73.2z"/>
			<path class="st1" d="M83.7,111c-0.1-0.4,0,0.3,0,0.5c-0.1,0.7-0.4,1.3-0.8,1.8c-1.8,2.4-5.3,3-8,3.3c-0.9,0.1,0.7,0.7,3,0.4
				c3.7-0.4,7.4-1.8,6.8-5.8C84.6,110.3,83.5,109.7,83.7,111z"/>
		</g>
	</g>
</g>
</svg>
