<?xml version="1.0" encoding="utf-8"?>
<!-- Generator: Adobe Illustrator 21.1.0, SVG Export Plug-In . SVG Version: 6.00 Build 0)  -->
<svg version="1.1" id="圖層_1" xmlns="http://www.w3.org/2000/svg" xmlns:xlink="http://www.w3.org/1999/xlink" x="0px" y="0px"
	 viewBox="0 0 80 80" style="enable-background:new 0 0 80 80;" xml:space="preserve">
<style type="text/css">
	.st0{fill:#FFFFFF;}
	.st1{fill-rule:evenodd;clip-rule:evenodd;fill:#EE3038;}
	.st2{fill:none;}
</style>
<g>
	<g>
		<path class="st0" d="M57.2,55.4c-2.5,0.6-4.2,0.8-8-1c-3.8-1.8-14.1-0.4-16.1,0c-2,0.3-4.9-0.6-6.8-0.7c-1.9-0.2-2.5,2-4.4,1.6
			C20,54.8,19,54.6,19,56.6c0.1,1.9-2.1,2.1-0.9,3.7c0.4,0.6,1.3,0.5,2.1,1c0.8,0.4,1.4,3.4,5.3,3.9c4,0.4,9.3,3.7,15.8,3.8
			c6.5,0.1,7-2.2,11-3.5c3.9-1.2,3.2-6.4,6.5-8.1C62.2,55.6,59.7,54.9,57.2,55.4z"/>
		<g>
			<path class="st1" d="M69.9,31c-0.4-0.1-0.8-0.3-1.3-0.3c-0.1,0.1-0.1,0.2-0.2,0.3c-0.1,0.1-0.4,0.2-0.5,0.2
				c-0.1,0-0.1-0.1-0.2-0.1c-0.1,0-0.1,0.2-0.2,0.2c-0.1,0.1-0.6,0.1-0.8,0.1c0,0-0.1-0.1-0.2,0c-0.2,0-0.3,0.2-0.5,0.2
				c-0.2,0.1-0.4,0.1-0.6,0.1H65c0,0-0.1,0.1-0.1,0.1c-0.2,0-0.3,0-0.5-0.1c-0.2,0-0.3,0.3-0.4,0.4c-0.2,0.2-0.5,0.2-0.8,0.4
				c0,0-0.1,0.1-0.2,0.2c-0.2,0-0.4,0-0.7,0c-1.2,0.3-1.8,0-2.8-0.3c-0.4-0.1-1,0.3-1.3,0.2c-0.1,0-0.1,0-0.2-0.1
				c0-0.5,0.3-0.7,0.4-1c0.1-0.3,0.2-0.6,0.4-0.8c0.5-0.5,1.3-0.7,1.9-1.1c0.2-0.1,0.3-0.4,0.4-0.6c0.1-0.1,0.2-0.2,0.3-0.3
				c0.1-0.1,0.2-0.3,0.3-0.4c0.4-0.3,0.8-0.5,1.1-0.8c0.1-0.1,0.2-0.3,0.4-0.4c0.1-0.1,0.3-0.1,0.4-0.2c0.1-0.1,0.1-0.2,0.2-0.3
				c0.1-0.2,0.4-0.4,0.5-0.7c0.2-0.3,0.6-0.4,0.9-0.7c0.1-0.1,0.2-0.2,0.2-0.3c0.1-0.1,0.5-0.2,0.8-0.2c0.1,0,0.3,0.1,0.4,0.1
				c0.3-0.1,0.3-0.8,0.5-1.1c0.1-0.1,0.6-0.8,0.7-0.8c0.1-0.1,0.3-0.1,0.4-0.2c0-0.1,0-0.2,0-0.3c0-0.1,0.2-0.2,0.2-0.3
				c0-0.1,0-0.3,0.1-0.4c0-0.3-1.2-0.5-1.4-0.5c-0.2,0.5-0.8,1.3-1.2,1.6c-0.1,0.1-0.2,0.1-0.3,0.1c-0.2,0.1-0.5,0.3-0.7,0.4
				c-0.1,0.1-0.3,0.1-0.4,0.2c-0.2,0-0.3,0-0.5-0.1c0-0.1,0-0.1,0.1-0.2c0,0-0.1,0-0.1,0c-0.1-0.5-0.2-1.1-0.4-1.8
				c-0.1-0.4,0.1-0.8-0.1-1.1c-0.1-0.1-0.6-0.2-0.8-0.1c-0.3,0.1-0.3,0.5-0.4,0.8c-0.1,0.1-0.2,0.3-0.3,0.4c-0.1,0.2-0.1,0.8-0.1,1
				c0,0.1,0.2,0.3,0.2,0.4c0.1,0.3,0.2,1.3,0.1,1.7c-0.3,0.9-1.1,1.2-1.8,1.8c0,0,0,0.1-0.1,0.1c-0.2,0.2-0.7,0.6-0.9,0.6
				c-0.1,0-0.3-0.1-0.4-0.1c-0.2,0-0.1,0.1-0.2,0.2c-0.2,0.1-0.4,0.2-0.6,0.3C58.1,27.7,58,28,57.8,28c-0.4,0.1-0.6-0.1-1,0
				c-0.5,0.1-0.7,0.4-1.1,0.6c0,0.2-0.3,1-0.2,1.2c0,0,0,0,0.1,0c0.1,0.1,0.2,0.5,0.1,0.8c-0.1,0.5-0.4,1-0.6,1.4
				c-0.2,0.7-0.3,1.3-0.6,1.9c-0.2,0.3-0.4,0.7-0.6,1c-0.2,0.3-0.5,0.5-0.7,0.7c-0.3,0.4-0.4,0.7-0.6,1.2c-0.1,0.3-0.4,0.6-0.5,0.9
				c-0.2-0.1-0.3-0.7-0.4-1c-0.3-0.9-0.2-1.8,0.1-2.6c0.1-0.3,0.1-0.6,0.2-0.8c0.1-0.1,0.5-1,0.5-1.1c0-0.2,0.1-0.4,0-0.7
				c-0.1-0.5,0-1.2,0.1-1.8v-0.3c0.1-0.4,0.1-0.9,0.2-1.2c0.1-0.2,0-0.5,0-0.7c0-0.2,0.1-1.2,0.2-1.3c0.2-0.4,0.7-1.1,1-1.4
				c0.6-0.6,1.8-0.9,2.4-1.4c0.2-0.1,0.3-0.4,0.4-0.5c0.1-0.1,0.3-0.2,0.4-0.3c0.1-0.2,0.2-0.4,0.4-0.6c0.2-0.2,0.5-0.2,0.7-0.4
				c0.3-0.2,0.4-0.7,0.8-0.8c0,0,0,0,0.1,0c0-0.2,0.3-0.3,0.4-0.4c0.2-0.1,0.3-0.4,0.5-0.5c0.1,0,0.2,0,0.3-0.1
				c0.1-0.1,0.1-0.2,0.1-0.3c0,0,0,0,0,0c-0.1-0.2-0.7-0.5-0.9-0.7c-0.5,0-0.4,0.1-0.7,0.3c-0.3,0.2-0.6,0.2-0.9,0.4
				c-0.2,0.1-0.3,0.5-0.5,0.7c-0.1,0.2-0.4,0.2-0.5,0.4c-0.3,0-0.4-0.1-0.7-0.1c-0.2,0.2-0.7,0.5-0.8,0.8h-0.1
				c-0.1,0.3-0.4,0.3-0.5,0.4c-0.1,0.1-0.2,0.3-0.4,0.4c-0.6,0.4-1.3,0.6-1.8,1c-0.1,0-0.2,0-0.3-0.1c-0.3-0.1-0.2-0.7-0.3-1.1
				c-0.2-0.8,0.2-2.3,0.4-2.8c-0.1-0.1-0.2-0.4-0.3-0.6c-0.2-0.2-0.6-0.3-0.8-0.6c-0.3,0.1-0.4,0.5-0.5,0.7c-0.5,0.7-0.8,1.5-1,2.5
				c0,0.2,0,0.6,0.1,0.8v0.4c0.1,0.5,0.2,1.8,0.1,2.4c-0.2,0.8-0.5,1.7-0.7,2.4c0,0.2,0,0.4,0,0.7c-0.1,0.6-0.2,1.4-0.4,2
				c-0.1,0.2,0,0.4-0.1,0.6c-0.1,0.4-0.2,0.9-0.4,1.4c-0.1,0.4-0.4,0.9-0.4,1.4h-0.1c-0.3-0.7-0.5-1.4-0.7-2.2v-0.4
				c-0.1-0.5-0.1-1.3-0.2-1.9c-0.1-0.4,0-0.9,0-1.2c-0.2-0.7,0.2-1.4,0.1-2.1c-0.1-1.1-0.4-2-0.4-3.2c-0.6,0-1.4,0.1-1.9-0.1
				c-0.2,0.6-0.1,1.5-0.2,2.2v1c0,0.1,0,0.5-0.1,0.7c-0.1,0.5-0.3,1.2-0.3,1.8c0,0.5,0.1,1,0.1,1.5c0,0.2-0.1,0.3-0.1,0.6
				c0.1,0.4,0.2,1.1,0,1.4c-0.1,0.1-0.2,0.2-0.3,0.3c-0.1,0-0.2,0-0.4,0.1c-0.2-1.6-0.6-3.1-1-4.4c-0.1-0.5-0.1-1-0.2-1.5
				c-0.1-0.4,0-1,0-1.3c0-0.5,0-1.1,0-1.6c0.1-0.4,0.2-0.8,0.3-1.1c0.1-0.3,0.1-0.6,0.3-0.8c0.4-0.6,0.8-1.2,1.4-1.6
				c0.2-0.1,0.5-0.2,0.7-0.3c0.2-0.1,0.4-0.3,0.6-0.4c0.1,0,0.1,0,0.2-0.1c0.5-0.5,0.9-1.1,1.3-1.6c0.3-0.4,0.6-0.7,0.8-1.2
				c0.1-0.1,0.2-0.3,0.2-0.5c-0.1-0.4-0.8-0.6-1.2-0.8c-0.3,0-0.7,0.8-0.9,1c-0.1,0.1-0.2,0.3-0.4,0.4c0,0-0.1,0-0.1,0v0.1
				c-0.3,0.4-0.8,1-1.3,1.3c-0.3,0.2-0.6,0.3-0.9,0.4c-0.3,0.1-0.8,0.7-1.2,0.5c-0.3-0.1-0.4-0.5-0.5-0.8c-0.2-0.4-0.3-0.8-0.4-1.2
				c-0.1-0.5,0.1-1.1,0.1-1.4c-0.1-0.5-0.3-1.2-0.1-1.8C41.4,13,40.8,13,40.3,13c0,0.5,0,1.5-0.3,1.7c-0.1,0-0.1,0-0.2-0.1
				c-0.2,0.1-0.5,0.3-0.6,0.5c0,0.1,0,0.1,0,0.2c0,0.1-0.1,0.1-0.1,0.2c0.1,0.7,0.6,1.2,0.9,1.8c0,0.1,0,0.2,0.1,0.4
				c0.1,0.4,0.3,0.8,0.4,1.2c0.2,0.9-0.1,1.8-0.3,2.4C40,21.7,40.1,22,40,22.3c-0.1,0.4-0.3,0.7-0.4,1.1c-0.1,0.3-0.1,0.6,0,0.9
				c0,0.6,0,1.3,0,1.9c0,0.1-0.1,0.2-0.1,0.3c-0.6,0.1-1.3-0.4-1.7-0.7c-0.6-0.4-1.4-0.7-1.7-1.4c-0.3-0.5-0.4-1-0.6-1.6
				c-0.1-0.3,0-0.8,0.1-1.1v-0.6c0.1-0.4,0.1-0.8,0.2-1.2c0.1-0.5,0.5-1,0.6-1.5c0.1-0.4,0-1.1-0.1-1.4c0-0.2,0-0.3-0.1-0.5
				c-0.3-0.9-0.7-1.8-0.9-2.7c-0.1-0.3,0.1-0.6,0.1-0.8c0.1-0.5,0-1,0-1.3c0-0.2,0-0.4-0.1-0.5c0-0.1-0.1-0.1-0.1-0.2
				c-0.3,0-0.6,0.1-0.8,0.1c-0.1,0.5,0,1.1-0.1,1.7c0,0.1,0.1,0.1,0,0.3C34.1,13.7,34,14.3,34,15v0.5c0.1,0.4,0,0.8,0.1,1.2
				c0.1,0.6,0.2,1.3,0.1,1.9c-0.1,0.4-0.2,0.8-0.4,1.2c-0.1,0.1-0.2,0.3-0.3,0.5v0.2c-0.1,0.3-0.2,0.6-0.4,0.8c-0.1,0-0.1,0.1-0.2,0
				c-0.5,0-1-1-1-1.6c0,0,0,0,0,0c-0.3,0-0.6,0.1-0.9,0.2c-0.4,0.1-0.8,0-1.2,0c0,0.1,0,0.2-0.1,0.3c0,0.1-0.1,0.1-0.1,0.2
				c-0.4-0.1-0.7-0.4-1-0.6c-0.8-0.6-1.4-1.2-1.8-2.3c-0.1-0.3-0.1-0.7-0.3-1c-0.2-0.6-0.5-1.2-0.8-1.7c-0.1-0.3-0.2-0.7-0.4-0.9
				c-0.1-0.1-0.3,0.1-0.4,0.1c-0.4,0.2-0.7,0.2-1,0.4c0,0.3,0.1,0.4,0.2,0.6c0.2,0.5,0.4,1,0.6,1.6c0.1,0.2,0.1,0.5,0.2,0.6
				c0.1,0.3-0.1,0.7,0,1v0.5c0,0.2,0.2,0.3,0.3,0.4c0,0.1,0,0.1,0,0.2c0.1,0.1,0.2,0.2,0.3,0.3c0.1,0.1,0.1,0.2,0.1,0.3
				c0.1,0.2,0.4,0.4,0.6,0.5c0.5,0.4,1,0.8,1.5,1.2c0.3,0.2,0.6,0.3,0.9,0.5c0.3,0.2,0.6,0.5,0.9,0.7c0.2,0.1,0.4,0.2,0.7,0.3
				c0.2,0.1,0.5,0.3,0.7,0.5c0.2,0.1,0.5,0.2,0.8,0.4c0.5,0.4,0.9,1.3,1.2,1.9c0.2,0.4,0.6,0.8,0.7,1.4c-0.1,0.1-0.1,0.2-0.2,0.3
				c-0.2,0.2-0.6,0.4-0.8,0.5c-0.1,0.1-0.3,0.1-0.4,0.1c-0.4,0.2-0.8,0.5-1.2,0.7c-0.2,0.1-0.7,0.1-0.9,0.3c-0.1,0-0.1,0-0.2,0
				c-0.2-0.9-0.2-2,0.2-2.8c0.1-0.2,0.2-0.3,0.3-0.4c0-0.1,0.1-0.3,0.1-0.4c0.1-0.3,0.4-0.6,0.2-0.9c-0.1-0.2-0.2-0.1-0.3-0.2
				c-0.1-0.1-0.1-0.3-0.2-0.4c-0.2-0.2-0.3,0.2-0.5,0.3C29.4,24,29.3,24,29.2,24c-0.1,0.2-0.1,0.5-0.2,0.7c-0.1,0.3-0.3,0.6-0.4,0.9
				c0,0.2,0,0.3-0.1,0.5c-0.1,0.3-0.2,0.5-0.3,0.8c0,0.3,0,0.7-0.1,1c0,0.2-0.1,0.4-0.2,0.6c0,0.1,0,0.3,0,0.4V29
				c-0.4-0.1-1.1-0.4-1.4-0.6l-0.3-0.3c-0.1-0.1-0.1,0-0.2-0.1c-0.5,0-0.6,0.4-0.9,0.6c0,0.3,0.3,0.4,0.4,0.6
				c0.2,0.2,0.1,0.7,0.3,0.8c0.1,0.1,0.3,0.2,0.4,0.3c0.1,0.1,0.1,0.2,0.2,0.3c0.6,0.2,1.5,0.1,2,0.5c0.1,0.1,0.2,0.3,0.2,0.4
				c0.2,0.3,0.4,0.6,0.7,0.8c1,1,2.2,1.7,2.8,3c0.3,0.6,0.4,1.3,0.6,1.9c0.1,0.3,0,0.7,0.2,0.9v0c-0.3,0-0.6-0.7-0.8-1
				c-0.3-0.4-0.6-0.8-0.9-1.1c-0.3-0.4-0.6-0.9-1-1.2c-0.5-0.4-1-0.8-1.5-1.1c-0.3-0.2-0.6-0.2-0.9-0.4c-0.8-0.4-1.6-0.9-2.3-1.4
				c-0.5-0.4-0.8-1.1-1-1.8c-0.1-0.1-0.2-0.3-0.3-0.4c-0.1-0.3-0.1-0.5-0.2-0.9c-0.1-0.6-0.2-1.2-0.2-1.9v-0.6
				c0.1-0.4,0.1-0.8,0.1-1.2c-0.1-0.4,0.1-0.9,0-1.3c-0.2-0.6-0.4-1.1-0.8-1.6c-0.1-0.2-0.3-0.3-0.4-0.5c-0.4-0.6-0.8-1.4-1.3-1.9
				c-0.1-0.1-0.3-0.3-0.5-0.4c-0.2-0.2-0.4-0.5-0.6-0.7c-0.2-0.2-0.4-0.3-0.6-0.6c-0.2-0.2-0.3-0.5-0.5-0.7
				c-0.1-0.1-0.2-0.2-0.3-0.3c-0.2-0.3-0.2-0.7-0.5-0.8c-0.1-0.1-0.3,0.1-0.5,0c-0.2,0-1.1-0.4-1.2-0.4c-0.1,0-0.3,0.5-0.4,0.6
				c0,0.3,0.2,0.3,0.4,0.5c0.1,0.1,0.1,0.2,0.2,0.3c0.2,0.2,0.3,0.2,0.5,0.5c0.1,0.1,0.3,0.4,0.2,0.6c0,0.2,0.1,0.1,0.2,0.2
				c0.1,0.1,0.1,0.2,0.1,0.3c0,0.1,0.3,0.1,0.4,0.2c0.1,0.1,0.4,0.5,0.5,0.6c0,0.1,0,0.2,0,0.3c0.1,0.2,0.3,0.2,0.3,0.5
				c0.6,0.1,0.9,0.9,1.2,1.4c0.4,0.8,1.3,1.5,1,2.8c0,0.1,0,0.3-0.1,0.4c0,0-0.1,0-0.1,0c0,0.1,0.1,0.2,0,0.3c-0.1,0.3,0,1-0.2,1.2
				c-0.1,0.3-0.6,0.4-0.9,0.3c-0.3-0.1-0.5-0.3-0.7-0.5c-0.1-0.1-0.3-0.1-0.4-0.2c-0.1-0.1-0.2-0.2-0.2-0.3h-0.2
				c-0.1,0-0.3-0.1-0.4-0.2c-0.3,0-0.3,0.3-0.5,0.5c0.2,0.3,0.8,0.8,1.1,1c0.2,0.1,0.4,0.1,0.6,0.2c0.2,0.2,0.3,0.3,0.5,0.5
				c0.2,0.1,0.4,0.1,0.7,0.3c0.1,0.1,0.1,0.1,0.2,0.2c0.1,0.1,0.2,0,0.3,0.1c0.7,0.4,0.7,1.7,0.9,2.5c0.1,0.4,0.4,0.7,0.3,1.1
				c-0.6,0.3-1.6-0.2-2.2-0.4c-1.2-0.4-2.3-0.6-3.3-1.3c-0.1,0-0.1-0.1-0.2-0.2c-0.3-0.2-0.6-0.4-0.8-0.7c-0.1-0.1-0.2-0.4-0.3-0.5
				c-0.4-0.2-0.9-0.3-1.4-0.5c-0.3-0.1-0.5-0.4-0.8-0.6c-0.4-0.4-1.2-0.9-1.5-1.4c-0.1-0.1-0.3-0.6-0.2-0.8c0-0.7,0-0.4-0.4-0.7
				c-0.5,0-0.6,0.1-0.7,0.5v0.4c0,0.1-0.2,0.2-0.2,0.3c-0.2,0.3-0.2,0.7-0.3,1c0.3,0.3,0.8,0.3,1.2,0.6c0.6,0.4,1.1,0.8,1.6,1.2
				c0.5,0.4,0.7,0.9,1.1,1.4c0.1,0.2,0.4,0.3,0.6,0.4c0.1,0.1,0.2,0.3,0.4,0.4c0.1,0.1,0.2,0.1,0.3,0.1c0.2,0.2,0.1,0.4,0.3,0.6
				c0.2,0.2,0.6,0.1,0.8,0.3c0.2,0.1,0.4,0.3,0.6,0.5c0.1,0.1,0.3,0.1,0.4,0.2c0,0.1,0.1,0.2,0.1,0.2c0.2,0.2,0.5,0.2,0.7,0.3
				c0.2,0.1,0.3,0.2,0.4,0.3c0,0.1,0,0.4,0.1,0.5c0.2,0.5,1,0,1.5,0.2c0.4,0.1,0.6,0.5,0.9,0.6c0.3,0.1,0.6-0.1,0.8-0.2
				c0.3-0.1,1.6-0.2,2-0.1c0.2,0.1,0.6,0.1,0.8,0.2c1.6,0.7,3.6,2,4.3,3.5c0.1,0.3,0.3,0.5,0.4,0.7c0,0.1,0.1,0.3,0.1,0.4
				c0.1,0.1,0.2,0.3,0.2,0.6c-0.1,0.2-0.3,0.3-0.5,0.4c-0.2,0.1-0.3,0.3-0.5,0.4c-0.3,0.1-1.1,0.1-1.4,0c-0.3-0.1-0.6-0.4-0.9-0.6
				c-0.2-0.1-0.3-0.1-0.5-0.2c-0.4-0.2-0.7-0.7-1.2-0.9c-0.1-0.1-0.6-0.2-0.7-0.2c-0.2,0-0.5,0.1-0.7,0c-0.2-0.1-0.5-0.2-0.8-0.3
				c-0.2,0-0.5,0-0.7,0c-0.3,0.1-0.7,0-0.9,0.1c-0.2,0-0.4,0.2-0.6,0.3c-0.4,0.1-0.8,0.1-1.1,0.2c0,0.1,0,0.2,0,0.2
				c-0.3,0.1-0.6,0.3-0.8,0.6c-0.1,0.1,0,0.3-0.1,0.4c-0.1,0.2-0.4,0.3-0.6,0.5c-0.1,0.1-0.1,0.2-0.2,0.3c-0.4,0.3-0.8,0.2-1.1,0
				h-0.6c-0.1,0.1,0,0.1-0.2,0.2c0,0.1-0.1,0.4-0.1,0.5c0.1,0.2,0.3,0.1,0.6,0.2c0.1,0,0.2,0.1,0.3,0.2v0.1c0.2,0.1,0.4,0.2,0.6,0.3
				c0.1,0,0.1,0.1,0.2,0.2c0.1,0,0.2,0,0.2,0c0.3,0.2,0.3,0.9,0.5,1.2c0.4-0.1,0.8-0.2,1.1-0.3c0-0.4-0.2-0.9-0.1-1.3
				c0.4-1.1,2.1-2,3.7-1.5c0.6,0.2,1,0.5,1.5,0.8c0.7,0.4,1.4,0.7,2,1.1c0.2,0.1,0.2,0.3,0.4,0.5c0,0.2,0,0.6,0,0.7
				c0,0.1,0.2,0.3,0.2,0.4c0.1,0.3,0.1,0.5,0.2,0.8c0.1,0.3,0.4,0.7,0.5,1c0.1,0.3,0.2,0.8,0,1c0,0.4,0.2,0.5,0.5,0.7
				c0.1,0.6,0.2,2.2,0.7,2.4c0.1,0.1,0.3,0,0.4,0.1c0.2,0,0.1-0.1,0.3-0.1c0.1,0,0.1,0,0.2,0c0,0,0.1-0.1,0.1-0.1
				c0.3-0.1,0.4,0.2,0.6,0.2c0.1,0,0.1,0,0.2,0c0.4-0.1,0.5-0.6,0.8-0.8c0-0.2-0.1-0.4-0.2-0.5c-0.1,0-0.2,0-0.3,0l-0.1-0.2h-0.2
				C30.2,49.1,30.1,49,30,49c-0.2,0-0.4,0-0.5,0.1c-0.1,0-0.1,0-0.1-0.1c0-0.1-0.4-0.9-0.2-1.1c0.1-0.1,0.3-0.1,0.4-0.2
				c0.1-0.1,0.1-0.2,0.2-0.3c0-0.5-0.3-0.4-0.4-0.7c-0.2-0.3-0.2-0.7-0.4-1.1c-0.1-0.4-0.5-0.9-0.3-1.5c0.2-0.7,0.6-0.8,1.2-1
				c0.3-0.1,0.7-0.3,1-0.4c0.6-0.2,1.1,0,1.5,0.2c0.7,0.4,1.2,0.9,1.7,1.5c0.2,0.3,0.4,0.7,0.7,0.9v0.1h0.1c0.3,0.5,0.9,0.9,1.1,1.5
				c0.1,0.3,0,0.6,0.1,0.9c0.1,0.3,0,0.8,0.1,1.2c0.1,1.1-0.1,2.1-0.5,2.8c-0.1,0.3-0.2,0.6-0.5,0.8c-0.2,0.1-0.3,0.1-0.5,0.1
				c-0.1,0-0.3,0.2-0.4,0.2c-0.1,0-0.2-0.1-0.3,0c0,0-0.1,0.1-0.1,0.1c-0.1,0.1-0.3,0.2-0.5,0.2c-0.1,0,0-0.1-0.2-0.1v-0.1
				c-0.4-0.1-0.7-0.5-1.1-0.6c-0.2,0-0.4,0.2-0.6,0.3c-0.2,0-0.5,0-0.7,0c0,0-0.1-0.1-0.2,0c-0.1,0-0.1,0.2-0.2,0.2
				c-0.1,0.1-0.3,0-0.4,0.1c-0.2,0.1-0.3,0.6-0.4,0.8c0,0.2,0.1,0.2,0.2,0.3c0.2,0.2,0.6,0.2,0.9,0.4c0.1,0.1,0.2,0.2,0.3,0.2h0.1
				c0.1,0.1,0.1,0.3,0.3,0.4c0.1,0.1,0.4,0.2,0.5,0.3c0,0.1,0,0.1,0,0.2c0,0.1,0.2,0.3,0.3,0.3c0.1,0,0.2,0,0.2,0.1v0.2
				c0,0,0.1,0.1,0.1,0.1c0.1,0.1,0,0.1,0,0.3c0.1,0.3,0.3,0.5,0.5,0.7c0.1,0,0.4,0,0.5,0c0.1,0,0.1,0.2,0.2,0.2
				c0.1,0,0.2,0.1,0.2,0.1c0.2,0.1,0.3,0.2,0.5,0.3c0.2,0.1,0.3,0.3,0.4,0.6c0.2,0.7,0.6,1.3,1.2,1.7c0.5,0.3,1.1,0.5,1.7,0.6
				c0.2,0,0.4,0,0.6,0c0,0,0,0,0,0c0,0,0-0.1,0-0.1c0,0-0.1,0-0.1,0c-0.2-0.1-0.4-0.1-0.6-0.2c-0.3-0.1-0.6-0.2-0.9-0.4
				c-0.2-0.1-0.5-0.2-0.7-0.4c-0.2-0.1-0.3-0.4-0.4-0.6c-0.1-0.1-0.2-0.3-0.2-0.5c0-0.1-0.1-0.3,0-0.3c0.2-0.1,0.3,0.1,0.5,0.1
				c0.1,0.1,0.3,0,0.4,0.2c0,0,0,0,0,0.1h0.1c0,0.2,0.1,0.1,0.2,0.2c0,0,0,0.1,0,0.1h0.2c0,0,0.1,0.1,0.1,0.1c0,0,0,0,0.1,0
				c0,0.2,0.6,0.4,0.8,0.4v0.1c0.3,0,0.3,0.1,0.6,0.2h0.3c0.5,0.1,0.8,0.1,1.3,0.1c0,0.1,0,0.1-0.1,0.2v0c0.6,0,1.5-0.1,1.9-0.3H42
				c0.1,0,0.3-0.1,0.4-0.2c0.3-0.1,0.7-0.1,0.8-0.4c0.1,0,0.1,0,0.2,0.1c0.5,0,0.5-0.5,1-0.6v-0.1h0.1c0-0.1-0.1-0.3-0.2-0.4
				c0,0,0.1-0.2,0.1-0.2c0-0.1-0.1-0.2-0.2-0.2c0.1-0.1,0.5-0.3,0.6-0.3v-0.1c0,0,0.1,0,0.1,0c0,0,0.1-0.2,0.1-0.2
				c0.1-0.1,0.1-0.1,0.2-0.2c0.1-0.3,0.2-0.5,0.5-0.6c0.3-0.2,0.7-0.2,0.9-0.5c0.1-0.1,0.1-0.3,0.2-0.5c0.2,0.4-0.1,1-0.4,1.3
				c-0.1,0-0.1,0.1-0.2,0.2c0,0,0,0.1,0,0.1c0,0,0.1,0,0.1,0c0.4,0,0.7-0.3,0.8-0.6c0.1-0.1,0.2-0.2,0.2-0.4c0-0.2,0-0.5-0.1-0.7
				c-0.1-0.2-0.2-0.4-0.4-0.5c-0.1-0.1-0.2-0.2-0.3-0.3c0,0,0,0,0,0c0,0,0,0,0,0c0,0-0.1,0-0.1-0.1c-0.1,0-0.2-0.1-0.4-0.1h-0.2
				c0-0.1,0-0.1,0-0.2c-0.1-0.1-0.2-0.2-0.2-0.4v-0.2c-0.1-0.2-0.3-0.5-0.5-0.6c0-0.7,0.4-1.1,0.7-1.6c0.4-0.6,0.7-1.1,1.1-1.7
				c0.2-0.3,0.6-0.5,0.8-0.8c0.4-0.5,0.8-1,1.3-1.5c0.1-0.1,0.2-0.4,0.3-0.5c0.2-0.3,0.5-0.5,0.7-0.8c0.7-1,1.7-2,2.9-2.4
				c0.8-0.3,1.8,0,2.4,0.2c0.5,0.1,1,0.1,1.4,0.3c0.3,0.2,0.5,0.6,0.8,0.8c0.1,0,0.2,0.1,0.3,0.1c0.3,0.1,0.8,0.3,1,0.6
				c0.9,0,0.2-1.2,0.2-1.7c0.2,0,0.5-0.2,0.8-0.1c0.6,0.1,1.1,0.4,1.6,0.6c0.3,0.1,1.1,0.1,1.3,0.2c0.3,0,0.6,0,0.8-0.1
				c0-0.4,0.1-0.7,0.1-1.2c-1,0-1.7-0.3-2.4-0.7c0-0.6,0.6-1.2,0.9-1.4c0.1-0.1,0.2-0.3,0.3-0.4c0.2-0.2,0.6-0.4,0.8-0.5
				c0.6-0.2,2.1-0.2,2.7,0c0.3,0.1,0.6,0.4,0.9,0.6c0.2,0.1,0.3,0.1,0.5,0.2c0.4,0,0.6-0.5,0.8-0.7c0-0.4-0.1-0.4-0.1-0.7H68
				c0-0.3,0.4-0.6,0.6-0.8c-0.1-0.3-0.4-0.5-0.5-0.8c-0.3,0-0.3,0.2-0.5,0.3c-0.2,0.1-0.4,0.1-0.6,0.2c-0.3,0.1-0.7-0.1-0.9-0.2
				c-0.3-0.1-1,0.1-1.3,0c-0.1-0.1-0.2-0.1-0.2-0.2c0-0.1,0-0.4-0.1-0.5c0-0.3-0.2-0.2-0.4-0.4c-0.8,0-1,0.7-1.4,1
				c-0.2,0.1-0.5,0.2-0.7,0.3c-0.2,0.1-0.4,0.3-0.5,0.4c-0.1,0-0.2,0-0.3,0.1c-0.1,0-0.1,0.1-0.2,0.2c-0.3,0.1-0.5,0-0.8,0.1
				c-0.1,0-0.2,0.1-0.4,0.1c-0.3,0.8-0.4,1.5-1.1,1.8c-0.2,0.1-0.7,0.2-0.9,0.1c-0.4,0-0.5-0.5-0.8-0.7c-0.2-0.1-0.5,0-0.8-0.1
				c-0.5-0.1-0.8-0.2-1.2-0.4c0-0.7,0.5-1.2,0.7-1.7c0.7-1.4,1.3-3.1,2.9-3.5c0.6-0.2,1.1,0.1,1.5,0.2c0.3,0.1,0.5-0.1,0.8,0
				c0.1,0,0.6,0.1,0.8,0.1c0.3-0.1,0.4-0.4,0.7-0.5c0.1-0.1,0.3,0,0.4,0c0.1,0,0.4-0.3,0.5-0.4c0.3-0.2,0.7-0.3,1.1-0.4
				c0.2-0.1,0.5-0.3,0.7-0.4c0.1,0,0.2,0,0.4,0c0.3-0.1,0.6-0.1,0.8-0.2c0.1,0,0.2-0.1,0.2-0.2c0.4-0.2,0.8-0.3,1.3-0.5
				c0.1,0,0.2-0.2,0.3-0.2c0.1,0,0.2,0,0.3,0c0,0,0.1-0.1,0.2-0.1c0.3-0.1,0.8,0,1-0.1c0.2-0.1,0.5-0.7,0.5-1.1
				C70,31.1,69.9,31,69.9,31z M40.2,33.9c-0.2,0.7-0.4,1.4-0.6,2.1c0,0.3-0.1,0.6-0.1,0.9v0.8c0,1.1,0.3,2.1,0.3,3.2v0.9
				c-0.1,0.3-0.2,0.8-0.3,1.1c-0.1,0.2-0.2,0.3-0.3,0.5c-0.1,0-0.2,0-0.2,0.1c-0.4-0.1-0.7-0.6-1-0.9c-0.6-0.6-1.1-1.3-1.5-2.1
				c-0.2-0.5-0.2-1.1-0.4-1.8c-0.3-1.2-0.5-2.7-1-3.8c-0.1-0.3-0.3-0.6-0.5-0.8c-0.1-0.2-0.2-0.5-0.3-0.7c-0.2-0.3-0.5-0.5-0.7-0.7
				c-0.1-0.1-0.1-0.2-0.2-0.3c-0.4-0.3-1-0.6-1.4-0.9c0,0,0-0.1-0.1-0.1h-0.1c-0.1-0.1-0.3-0.2-0.4-0.3c0,0,0,0,0-0.1
				c0.3-0.1,0.6-0.2,0.9-0.3c0.3-0.1,0.6-0.3,0.8-0.5c0.2-0.1,0.4-0.1,0.6-0.2c0.3-0.1,0.6-0.3,0.9-0.5c0.2-0.1,0.5-0.1,0.7-0.2
				c0.2,0,0.3,0,0.5,0c0.3,0.1,0.7,0,1.1,0.1c0.8,0.3,1.6,0.8,2.1,1.5c0.1,0.2,0.2,0.4,0.4,0.7C39.6,32,40.4,33.1,40.2,33.9z
				 M47.3,40.6c-0.3,0.5-0.6,1-0.9,1.5c-0.1,0.2-0.2,0.4-0.3,0.6c-0.1,0.1-0.2,0.2-0.3,0.2c-0.4,0.5-0.8,0.9-1.1,1.3
				c-0.1,0.2-0.3,0.2-0.5,0.4H44c0.3-0.6,0.4-1.3,0.7-2c0.4-0.9,0.8-1.6,1.2-2.5c0.1-0.3,0.1-1.1,0-1.3c-0.1-0.1-0.3-0.2-0.4-0.3
				c-0.5,0-0.5,0.3-1,0.3c-0.2-0.2-0.4-0.3-0.6-0.6c-0.4-0.8-0.2-2.2,0-3.1c0.1-0.4,0-0.7,0.1-1c1.1,0.1,1.8,1.3,2.3,2.1
				c0.5,0.7,1.3,1.4,1.6,2.2C48.2,39.2,47.5,40.2,47.3,40.6z"/>
			<path class="st1" d="M45.5,58.1c0-0.2,0,0.2,0,0.2c0,0.3-0.2,0.6-0.3,0.8c-0.8,1.1-2.4,1.4-3.7,1.5c-0.4,0,0.3,0.3,1.4,0.2
				c1.7-0.2,3.4-0.9,3.2-2.7C45.8,57.8,45.4,57.5,45.5,58.1z"/>
		</g>
	</g>
	<rect x="0" y="0" class="st2" width="80" height="80"/>
</g>
</svg>
