<?xml version="1.0" encoding="utf-8"?>
<!-- Generator: Adobe Illustrator 21.1.0, SVG Export Plug-In . SVG Version: 6.00 Build 0)  -->
<svg version="1.1" id="圖層_1" xmlns="http://www.w3.org/2000/svg" xmlns:xlink="http://www.w3.org/1999/xlink" x="0px" y="0px"
	 viewBox="0 0 38 37" style="enable-background:new 0 0 38 37;" xml:space="preserve">
<style type="text/css">
	.st0{fill:#FFFFFF;}
	.st1{fill-rule:evenodd;clip-rule:evenodd;fill:#EC2027;}
</style>
<g>
	<g>
	</g>
	<g>
		<path class="st0" d="M27.7,26.9c-1.4,0.3-2.2,0.4-4.2-0.6c-2-1-7.5-0.2-8.6,0c-1.1,0.2-2.6-0.3-3.6-0.4c-1-0.1-1.3,1-2.4,0.8
			c-1-0.2-1.5-0.3-1.5,0.7c0,1-1.1,1.1-0.5,2C7.1,29.8,7.6,29.7,8,30c0.4,0.2,0.7,1.8,2.9,2.1c2.1,0.2,5,2,8.4,2
			c3.5,0.1,3.8-1.2,5.8-1.9c2.1-0.7,1.7-3.4,3.5-4.3C30.4,27,29.1,26.6,27.7,26.9z"/>
		<g>
			<path class="st1" d="M34.5,13.8c-0.2,0-0.4-0.2-0.7-0.1c0,0.1-0.1,0.1-0.1,0.2c-0.1,0-0.2,0.1-0.3,0.1c-0.1,0,0,0-0.1,0
				c0,0-0.1,0.1-0.1,0.1c-0.1,0-0.3,0.1-0.4,0.1c0,0-0.1,0-0.1,0c-0.1,0-0.2,0.1-0.2,0.1c-0.1,0-0.2,0-0.3,0.1h-0.2
				c0,0-0.1,0-0.1,0.1c-0.1,0-0.2,0-0.3,0c-0.1,0-0.1,0.1-0.2,0.2c-0.1,0.1-0.3,0.1-0.4,0.2c0,0-0.1,0.1-0.1,0.1c-0.1,0-0.2,0-0.3,0
				c-0.6,0.2-0.9,0-1.5-0.1c-0.2-0.1-0.6,0.2-0.7,0.1c-0.1,0-0.1,0-0.1-0.1c0-0.3,0.1-0.4,0.2-0.6c0.1-0.1,0.1-0.3,0.2-0.5
				c0.2-0.3,0.7-0.4,1-0.6c0.1-0.1,0.1-0.2,0.2-0.3c0-0.1,0.1-0.1,0.2-0.1c0.1-0.1,0.1-0.2,0.2-0.2c0.2-0.2,0.4-0.3,0.6-0.4
				c0.1-0.1,0.1-0.2,0.2-0.2c0.1-0.1,0.2-0.1,0.2-0.1c0,0,0.1-0.1,0.1-0.2c0.1-0.1,0.2-0.2,0.3-0.3c0.1-0.1,0.3-0.2,0.5-0.3
				c0,0,0.1-0.1,0.1-0.1c0.1-0.1,0.3-0.1,0.4-0.1c0.1,0,0.1,0.1,0.2,0.1c0.2-0.1,0.2-0.4,0.2-0.6c0-0.1,0.3-0.4,0.4-0.5
				c0.1,0,0.2-0.1,0.2-0.1c0-0.1,0-0.1,0-0.2c0-0.1,0.1-0.1,0.1-0.2c0-0.1,0-0.1,0-0.2c0-0.1-0.6-0.2-0.8-0.3
				c-0.1,0.3-0.4,0.7-0.6,0.9c-0.1,0-0.1,0-0.2,0.1c-0.1,0.1-0.3,0.2-0.4,0.2c-0.1,0-0.2,0-0.2,0.1c-0.1,0-0.2,0-0.2-0.1
				c0-0.1,0-0.1,0-0.1c0,0,0,0-0.1,0c-0.1-0.3-0.1-0.6-0.2-1c-0.1-0.2,0-0.4,0-0.6c-0.1,0-0.3-0.1-0.4-0.1c-0.2,0-0.1,0.3-0.2,0.4
				c0,0.1-0.1,0.2-0.1,0.2c0,0.1,0,0.4,0,0.5c0,0,0.1,0.2,0.1,0.2c0.1,0.2,0.1,0.7,0,0.9c-0.2,0.5-0.6,0.7-0.9,0.9c0,0,0,0,0,0.1
				c-0.1,0.1-0.4,0.3-0.5,0.3c-0.1,0-0.2-0.1-0.2,0c-0.1,0-0.1,0.1-0.1,0.1c-0.1,0.1-0.2,0.1-0.3,0.2c-0.1,0.1-0.1,0.2-0.3,0.2
				c-0.2,0.1-0.3-0.1-0.6,0c-0.2,0.1-0.4,0.2-0.6,0.3c0,0.1-0.2,0.5-0.1,0.7c0,0,0,0,0,0c0,0.1,0.1,0.3,0.1,0.4
				c-0.1,0.3-0.2,0.5-0.3,0.7c-0.1,0.4-0.2,0.7-0.3,1c-0.1,0.2-0.2,0.4-0.3,0.5c-0.1,0.1-0.3,0.2-0.3,0.4c-0.1,0.2-0.2,0.4-0.3,0.6
				c-0.1,0.2-0.2,0.3-0.3,0.5c-0.1,0-0.2-0.4-0.2-0.5c-0.2-0.5-0.1-0.9,0-1.4c0-0.2,0-0.3,0.1-0.5c0-0.1,0.3-0.5,0.3-0.6
				c0-0.1,0-0.2,0-0.4c-0.1-0.3,0-0.7,0.1-0.9V13c0-0.2,0.1-0.5,0.1-0.7c0-0.1,0-0.3,0-0.3c0-0.1,0.1-0.6,0.1-0.7
				c0.1-0.2,0.4-0.6,0.6-0.8c0.3-0.3,0.9-0.5,1.3-0.7c0.1-0.1,0.1-0.2,0.2-0.3c0.1-0.1,0.1-0.1,0.2-0.1c0.1-0.1,0.1-0.2,0.2-0.3
				c0.1-0.1,0.3-0.1,0.4-0.2c0.2-0.1,0.2-0.4,0.4-0.4c0,0,0,0,0.1,0c0-0.1,0.1-0.2,0.2-0.2c0.1-0.1,0.1-0.2,0.2-0.3
				c0,0,0.1,0,0.1-0.1c0,0,0-0.1,0.1-0.2c0,0,0,0,0,0c0-0.1-0.4-0.2-0.5-0.3c-0.3,0-0.2,0.1-0.4,0.2c-0.1,0.1-0.3,0.1-0.5,0.2
				C28.2,7.8,28.1,8,28,8.1c-0.1,0.1-0.2,0.1-0.3,0.2c-0.2,0-0.2-0.1-0.4-0.1c-0.1,0.1-0.4,0.3-0.4,0.4h-0.1c0,0.1-0.2,0.1-0.3,0.2
				c-0.1,0.1-0.1,0.2-0.2,0.2c-0.3,0.2-0.7,0.3-1,0.6c-0.1,0-0.1,0-0.1,0c-0.2-0.1-0.1-0.4-0.2-0.6c-0.1-0.4,0.1-1.2,0.2-1.5
				c-0.1-0.1-0.1-0.2-0.2-0.3c-0.1-0.1-0.3-0.2-0.4-0.3c-0.1,0-0.2,0.3-0.3,0.4c-0.3,0.4-0.4,0.8-0.5,1.3c0,0.1,0,0.3,0,0.4v0.2
				c0.1,0.3,0.1,1,0,1.3c-0.1,0.4-0.2,0.9-0.3,1.3c0,0.1,0,0.2,0,0.3c-0.1,0.3-0.1,0.7-0.2,1.1c0,0.1,0,0.2,0,0.3
				c-0.1,0.2-0.1,0.5-0.2,0.7C23.2,14.5,23,14.8,23,15H23c-0.2-0.4-0.3-0.7-0.4-1.2v-0.2c-0.1-0.3,0-0.7-0.1-1c0-0.2,0-0.5,0-0.6
				c-0.1-0.4,0.1-0.8,0.1-1.1c-0.1-0.6-0.2-1-0.2-1.7c-0.3,0-0.8,0-1-0.1c-0.1,0.3,0,0.8-0.1,1.2v0.5c0,0.1,0,0.3,0,0.4
				c-0.1,0.3-0.2,0.7-0.2,1c0,0.3,0,0.5,0.1,0.8c0,0.1-0.1,0.2,0,0.3c0,0.2,0.1,0.6,0,0.8c0,0.1-0.1,0.1-0.2,0.2c-0.1,0-0.1,0-0.2,0
				c-0.1-0.8-0.3-1.6-0.5-2.4c-0.1-0.3,0-0.5-0.1-0.8c0-0.2,0-0.5,0-0.7c0-0.3,0-0.6,0-0.9c0.1-0.2,0.1-0.4,0.2-0.6
				c0-0.2,0.1-0.3,0.1-0.4c0.2-0.3,0.4-0.6,0.7-0.8c0.1-0.1,0.3-0.1,0.4-0.2c0.1-0.1,0.2-0.2,0.3-0.2c0,0,0.1,0,0.1,0
				c0.3-0.2,0.5-0.6,0.7-0.9c0.2-0.2,0.3-0.4,0.5-0.6c0-0.1,0.1-0.2,0.1-0.2c-0.1-0.2-0.4-0.3-0.6-0.4c-0.1,0-0.4,0.4-0.5,0.6
				c-0.1,0.1-0.1,0.1-0.2,0.2c0,0,0,0-0.1,0v0.1c-0.2,0.2-0.4,0.6-0.7,0.7c-0.2,0.1-0.3,0.1-0.5,0.2c-0.2,0.1-0.4,0.4-0.6,0.2
				c-0.2-0.1-0.2-0.3-0.3-0.5c-0.1-0.2-0.2-0.4-0.2-0.6c-0.1-0.2,0.1-0.6,0.1-0.7c0-0.3-0.2-0.7-0.1-1c-0.2-0.1-0.6-0.1-0.8-0.1
				c0,0.3,0,0.8-0.2,0.9c0,0-0.1,0-0.1,0c-0.1,0-0.3,0.2-0.3,0.2c0,0.1,0,0.1,0,0.1c0,0-0.1,0.1-0.1,0.1c0.1,0.4,0.3,0.6,0.5,0.9
				c0,0.1,0,0.1,0,0.2c0.1,0.2,0.2,0.4,0.2,0.7c0.1,0.5-0.1,1-0.2,1.3c-0.1,0.2,0,0.3-0.1,0.5c-0.1,0.2-0.1,0.4-0.2,0.6
				c0,0.2,0,0.3,0,0.5c0,0.3,0,0.7,0,1c0,0-0.1,0.1-0.1,0.1c-0.3,0.1-0.7-0.2-0.9-0.3c-0.3-0.2-0.7-0.4-0.9-0.7
				c-0.1-0.2-0.2-0.5-0.3-0.8c0-0.2,0-0.4,0-0.6V8.6c0-0.2,0.1-0.4,0.1-0.7c0.1-0.3,0.2-0.5,0.3-0.8c0.1-0.2,0-0.6-0.1-0.7
				c0-0.1,0-0.2,0-0.3c-0.2-0.5-0.4-0.9-0.5-1.5c0-0.2,0-0.3,0.1-0.5c0.1-0.3,0-0.5,0-0.7c0-0.1,0-0.2,0-0.3c0-0.1,0,0-0.1-0.1
				c-0.2,0-0.3,0-0.4,0.1c-0.1,0.3,0,0.6-0.1,0.9c0,0,0,0.1,0,0.1c-0.1,0.3-0.1,0.6-0.1,1v0.3c0,0.2,0,0.4,0.1,0.6
				c0.1,0.3,0.1,0.7,0,1c-0.1,0.2-0.1,0.4-0.2,0.6c0,0.1-0.1,0.2-0.2,0.2v0.1c0,0.2-0.1,0.3-0.2,0.4c0,0-0.1,0-0.1,0
				c-0.3,0-0.5-0.5-0.5-0.8c0,0,0,0,0,0c-0.2,0-0.3,0-0.5,0.1c-0.2,0-0.4,0-0.6,0c0,0.1,0,0.1,0,0.2c0,0.1,0,0.1-0.1,0.1
				c-0.2,0-0.4-0.2-0.5-0.3c-0.4-0.3-0.8-0.7-1-1.2c-0.1-0.2-0.1-0.4-0.1-0.5c-0.1-0.3-0.3-0.6-0.4-0.9c-0.1-0.2-0.1-0.4-0.2-0.5
				c-0.1,0-0.2,0-0.2,0.1C10.4,4.8,10.2,4.9,10,5c0,0.1,0.1,0.2,0.1,0.3c0.1,0.3,0.2,0.6,0.3,0.8c0,0.1,0.1,0.2,0.1,0.3
				c0,0.2,0,0.4,0,0.5v0.2c0,0.1,0.1,0.1,0.1,0.2c0,0,0,0.1,0,0.1c0.1,0,0.1,0.1,0.2,0.1c0,0.1,0,0.1,0.1,0.2
				C11,8,11.1,8.1,11.2,8.1c0.3,0.2,0.5,0.4,0.8,0.6c0.2,0.1,0.3,0.1,0.5,0.2c0.2,0.1,0.3,0.2,0.5,0.3c0.1,0.1,0.2,0.1,0.4,0.1
				c0.1,0.1,0.3,0.2,0.4,0.2c0.1,0.1,0.3,0.1,0.4,0.2c0.3,0.2,0.5,0.7,0.6,1c0.1,0.2,0.3,0.4,0.3,0.7c0,0-0.1,0.1-0.1,0.2
				c-0.1,0.1-0.3,0.2-0.5,0.3c-0.1,0-0.1,0-0.2,0.1c-0.2,0.1-0.4,0.3-0.6,0.4c-0.1,0-0.4,0.1-0.5,0.1c0,0-0.1,0-0.1,0
				c-0.1-0.5-0.1-1.1,0.1-1.5c0-0.1,0.1-0.2,0.2-0.2c0-0.1,0-0.2,0.1-0.2c0.1-0.1,0.2-0.3,0.1-0.5c0-0.1-0.1,0-0.2-0.1
				c-0.1,0-0.1-0.2-0.1-0.2C13.1,9.8,13,10,13,10.1c-0.1,0-0.1,0-0.2,0.1c0,0.1,0,0.3-0.1,0.4c-0.1,0.1-0.2,0.3-0.2,0.5
				c0,0.1,0,0.2,0,0.3c0,0.1-0.1,0.3-0.1,0.4c0,0.2,0,0.3,0,0.5c0,0.1-0.1,0.2-0.1,0.3c0,0.1,0,0.1,0,0.2v0c-0.2,0-0.6-0.2-0.7-0.3
				l-0.2-0.2c-0.1,0-0.1,0-0.1,0c-0.2,0-0.3,0.2-0.5,0.3c0,0.2,0.2,0.2,0.2,0.3c0.1,0.1,0.1,0.3,0.1,0.5c0,0.1,0.1,0.1,0.2,0.2
				c0,0,0.1,0.1,0.1,0.1c0.3,0.1,0.8,0.1,1,0.3c0.1,0,0.1,0.1,0.1,0.2c0.1,0.1,0.2,0.3,0.3,0.5c0.5,0.5,1.2,0.9,1.5,1.6
				c0.2,0.3,0.2,0.7,0.3,1c0,0.2,0,0.4,0.1,0.5v0c-0.2,0-0.3-0.4-0.4-0.5c-0.1-0.2-0.3-0.4-0.5-0.6c-0.2-0.2-0.3-0.5-0.6-0.6
				c-0.3-0.2-0.5-0.4-0.8-0.6c-0.2-0.1-0.3-0.1-0.5-0.2c-0.4-0.2-0.8-0.5-1.2-0.7c-0.3-0.2-0.4-0.6-0.6-0.9c0-0.1-0.1-0.1-0.1-0.2
				c-0.1-0.2,0-0.3-0.1-0.5c-0.1-0.3-0.1-0.6-0.1-1v-0.3c0-0.2,0.1-0.4,0-0.7c0-0.2,0.1-0.5,0-0.7C9.9,9.7,9.8,9.4,9.6,9.2
				C9.5,9.1,9.4,9,9.3,8.9c-0.2-0.3-0.4-0.7-0.7-1C8.6,7.8,8.5,7.8,8.4,7.7C8.3,7.5,8.2,7.4,8.1,7.3C8,7.2,7.9,7.1,7.8,7
				C7.7,6.9,7.6,6.7,7.5,6.6c0,0-0.1-0.1-0.1-0.1C7.3,6.3,7.3,6.1,7.1,6c-0.1,0-0.2,0-0.3,0C6.8,6,6.3,5.8,6.2,5.9
				C6.2,5.9,6.1,6.1,6,6.2c0,0.2,0.1,0.2,0.2,0.3c0,0,0.1,0.1,0.1,0.2c0.1,0.1,0.2,0.1,0.3,0.3c0,0.1,0.2,0.2,0.1,0.3
				c0,0.1,0,0,0.1,0.1c0.1,0,0,0.1,0.1,0.2c0,0,0.2,0,0.2,0.1c0,0,0.2,0.3,0.2,0.3c0,0.1,0,0.1,0,0.2c0.1,0.1,0.1,0.1,0.2,0.3
				C7.8,8.3,8,8.7,8.1,9c0.2,0.5,0.7,0.8,0.5,1.5c0,0,0,0.1-0.1,0.2c0,0,0,0-0.1,0c0,0,0,0.1,0,0.2c0,0.1,0,0.5-0.1,0.7
				c0,0.1-0.3,0.2-0.5,0.1c-0.1-0.1-0.3-0.2-0.4-0.2c-0.1,0-0.2-0.1-0.2-0.1c0,0-0.1-0.1-0.1-0.1H7.1c-0.1,0-0.2-0.1-0.2-0.1
				c-0.2,0-0.2,0.2-0.2,0.3c0.1,0.2,0.4,0.4,0.6,0.5c0.1,0.1,0.2,0.1,0.3,0.1c0.1,0.1,0.2,0.2,0.2,0.2c0.1,0.1,0.2,0.1,0.3,0.1
				c0,0,0.1,0.1,0.1,0.1c0.1,0,0.1,0,0.2,0c0.4,0.2,0.4,0.9,0.5,1.4C8.9,14,9.1,14.2,9,14.4c-0.3,0.2-0.9-0.1-1.1-0.2
				c-0.6-0.2-1.3-0.3-1.7-0.7c0,0-0.1-0.1-0.1-0.1c-0.1-0.1-0.3-0.2-0.4-0.3c0-0.1-0.1-0.2-0.2-0.3c-0.2-0.1-0.5-0.1-0.7-0.2
				c-0.1-0.1-0.3-0.2-0.4-0.3c-0.2-0.2-0.6-0.5-0.8-0.7c0-0.1-0.1-0.3-0.1-0.4c0-0.4,0-0.2-0.2-0.4c-0.3,0-0.3,0.1-0.4,0.3v0.2
				c0,0.1-0.1,0.1-0.1,0.2c-0.1,0.1-0.1,0.4-0.2,0.5c0.2,0.2,0.4,0.2,0.6,0.3c0.3,0.2,0.6,0.4,0.8,0.7c0.2,0.2,0.4,0.5,0.6,0.8
				c0.1,0.1,0.2,0.1,0.3,0.2C5,14,5.1,14.1,5.1,14.2c0.1,0,0.1,0,0.2,0.1c0.1,0.1,0.1,0.2,0.2,0.3c0.1,0.1,0.3,0.1,0.4,0.1
				c0.1,0.1,0.2,0.2,0.3,0.3C6.3,15,6.4,15,6.4,15c0,0,0,0.1,0.1,0.1c0.1,0.1,0.3,0.1,0.4,0.2c0.1,0,0.1,0.1,0.2,0.1
				c0,0.1,0,0.2,0,0.2c0.1,0.3,0.5,0,0.8,0.1c0.2,0.1,0.3,0.3,0.5,0.3c0.2,0,0.3-0.1,0.4-0.1c0.1,0,0.9-0.1,1-0.1
				c0.1,0,0.3,0,0.4,0.1c0.9,0.3,1.9,1,2.3,1.9c0.1,0.1,0.2,0.3,0.2,0.4c0,0.1,0,0.1,0.1,0.2c0,0.1,0.1,0.2,0.1,0.3
				c0,0.1-0.2,0.1-0.2,0.2c-0.1,0.1-0.2,0.2-0.3,0.2c-0.1,0.1-0.6,0.1-0.7,0c-0.2-0.1-0.3-0.2-0.5-0.3c-0.1,0-0.2-0.1-0.3-0.1
				c-0.2-0.1-0.4-0.4-0.6-0.5c-0.1,0-0.3-0.1-0.4-0.1c-0.1,0-0.3,0.1-0.4,0c-0.1,0-0.3-0.1-0.4-0.1c-0.1,0-0.3,0-0.4,0
				c-0.2,0-0.4,0-0.5,0.1c-0.1,0-0.2,0.1-0.3,0.1c-0.2,0.1-0.4,0-0.6,0.1c0,0,0,0.1,0,0.1c-0.1,0.1-0.3,0.2-0.4,0.3
				c0,0.1,0,0.1-0.1,0.2c-0.1,0.1-0.2,0.2-0.3,0.2c0,0-0.1,0.1-0.1,0.1c-0.2,0.1-0.4,0.1-0.6,0H5.7c-0.1,0,0,0.1-0.1,0.1
				c0,0.1,0,0.2-0.1,0.3c0.1,0.1,0.2,0.1,0.3,0.1c0,0,0.1,0.1,0.1,0.1v0c0.1,0.1,0.2,0.1,0.3,0.1c0,0,0.1,0.1,0.1,0.1
				c0,0,0.1,0,0.1,0c0.2,0.1,0.2,0.5,0.3,0.6c0.2,0,0.4-0.1,0.6-0.2c0-0.2-0.1-0.5,0-0.7c0.2-0.6,1.1-1.1,2-0.8
				c0.3,0.1,0.5,0.3,0.8,0.4c0.4,0.2,0.7,0.4,1.1,0.6c0.1,0.1,0.1,0.2,0.2,0.2c0,0.1,0,0.3,0,0.4c0,0.1,0.1,0.1,0.1,0.2
				c0,0.2,0,0.3,0.1,0.4c0.1,0.2,0.2,0.4,0.3,0.5c0.1,0.2,0.1,0.4,0,0.6c0,0.2,0.1,0.3,0.2,0.3c0.1,0.3,0.1,1.2,0.4,1.3
				c0,0,0.2,0,0.2,0c0.1,0,0.1,0,0.1-0.1c0,0,0,0,0.1,0c0,0,0,0,0.1,0c0.1,0,0.2,0.1,0.3,0.1c0.1,0,0,0,0.1,0c0.2,0,0.3-0.3,0.4-0.5
				c0-0.1,0-0.2-0.1-0.3c0,0-0.1,0-0.1,0l0-0.1h-0.1c-0.1,0-0.1-0.1-0.2-0.1c-0.1,0-0.2,0-0.3,0.1c0,0,0,0-0.1,0
				c0,0-0.2-0.5-0.1-0.6c0-0.1,0.1-0.1,0.2-0.1c0.1,0,0.1-0.1,0.1-0.2c0-0.3-0.1-0.2-0.2-0.4c-0.1-0.2-0.1-0.4-0.2-0.6
				c-0.1-0.2-0.2-0.5-0.2-0.8c0.1-0.4,0.3-0.4,0.6-0.6c0.2-0.1,0.4-0.2,0.5-0.2c0.3-0.1,0.6,0,0.8,0.1c0.4,0.2,0.7,0.5,0.9,0.8
				c0.1,0.2,0.2,0.4,0.4,0.5v0.1h0.1c0.2,0.3,0.5,0.5,0.6,0.8c0.1,0.2,0,0.3,0.1,0.5c0,0.2,0,0.4,0,0.7c0.1,0.6-0.1,1.1-0.3,1.5
				c-0.1,0.1-0.1,0.3-0.2,0.4c-0.1,0.1-0.2,0-0.3,0.1c-0.1,0-0.2,0.1-0.2,0.1c-0.1,0-0.1,0-0.2,0c0,0,0,0.1-0.1,0.1
				c0,0-0.2,0.1-0.3,0.1c0,0,0,0-0.1-0.1v-0.1c-0.2,0-0.4-0.3-0.6-0.3c-0.1,0-0.2,0.1-0.3,0.1c-0.1,0-0.3,0-0.4,0c0,0-0.1,0-0.1,0
				c-0.1,0-0.1,0.1-0.1,0.1c-0.1,0-0.1,0-0.2,0.1C13.1,25.7,13,25.9,13,26c0,0.1,0,0.1,0.1,0.2c0.1,0.1,0.3,0.1,0.5,0.2
				c0,0,0.1,0.1,0.1,0.1h0.1c0.1,0,0.1,0.1,0.1,0.2c0.1,0.1,0.2,0.1,0.3,0.1c0,0,0,0.1,0,0.1c0,0,0.1,0.1,0.1,0.2c0,0,0.1,0,0.1,0
				v0.1c0,0,0,0,0.1,0.1c0,0.1,0,0.1,0,0.1c0.1,0.1,0.2,0.2,0.3,0.4c0,0,0.2,0,0.3,0c0,0,0.1,0.1,0.1,0.1c0,0,0.1,0,0.1,0.1
				c0.1,0,0.2,0.1,0.3,0.1c0.1,0.1,0.2,0.2,0.2,0.3c0.1,0.4,0.3,0.7,0.6,0.9c0.3,0.2,0.6,0.3,0.9,0.3c0.1,0,0.2,0,0.3,0c0,0,0,0,0,0
				c0,0,0,0,0-0.1c0,0,0,0-0.1,0c-0.1,0-0.2-0.1-0.3-0.1c-0.2-0.1-0.3-0.1-0.5-0.2c-0.1-0.1-0.3-0.1-0.4-0.2
				c-0.1-0.1-0.2-0.2-0.2-0.3c0-0.1-0.1-0.2-0.1-0.2c0-0.1,0-0.1,0-0.2c0.1,0,0.2,0,0.3,0.1c0.1,0,0.2,0,0.2,0.1c0,0,0,0,0,0.1h0.1
				c0,0.1,0,0,0.1,0.1c0,0,0,0,0,0.1h0.1c0,0,0,0.1,0.1,0.1c0,0,0,0,0.1,0c0,0.1,0.3,0.2,0.4,0.2v0.1c0.2,0,0.2,0,0.3,0.1h0.2
				c0.2,0.1,0.4,0.1,0.7,0.1c0,0.1,0,0.1,0,0.1v0c0.3,0,0.8-0.1,1-0.1h0.2c0.1,0,0.2-0.1,0.2-0.1c0.2-0.1,0.4,0,0.4-0.2
				c0.1,0,0.1,0,0.1,0.1c0.2,0,0.3-0.3,0.5-0.3v-0.1H21c0-0.1,0-0.2-0.1-0.2c0,0,0.1-0.1,0.1-0.1c0-0.1-0.1-0.1-0.1-0.1
				c0-0.1,0.3-0.2,0.3-0.2V28c0,0,0,0,0,0c0,0,0.1-0.1,0.1-0.1c0,0,0.1-0.1,0.1-0.1c0.1-0.1,0.1-0.3,0.2-0.3
				c0.2-0.1,0.4-0.1,0.5-0.3c0-0.1,0.1-0.2,0.1-0.3c0.1,0.2,0,0.6-0.2,0.7c0,0-0.1,0-0.1,0.1c0,0,0,0.1,0,0.1c0,0,0,0,0,0
				c0.2,0,0.3-0.1,0.4-0.3c0-0.1,0.1-0.1,0.1-0.2c0-0.1,0-0.2,0-0.4c0-0.1-0.1-0.2-0.2-0.3c0,0-0.1-0.1-0.1-0.1c0,0,0,0,0,0
				c0,0,0,0,0,0c0,0,0,0-0.1,0c-0.1,0-0.1,0-0.2-0.1h-0.1c0,0,0-0.1,0-0.1c0-0.1-0.1-0.1-0.1-0.2v-0.1c0-0.1-0.1-0.3-0.2-0.3
				c0-0.4,0.2-0.6,0.4-0.9c0.2-0.3,0.4-0.6,0.6-0.9c0.1-0.2,0.3-0.3,0.4-0.4c0.2-0.3,0.4-0.5,0.7-0.8c0.1-0.1,0.1-0.2,0.2-0.3
				c0.1-0.1,0.3-0.3,0.4-0.4c0.4-0.5,0.9-1.1,1.6-1.3c0.4-0.1,0.9,0,1.3,0.1c0.2,0.1,0.5,0,0.7,0.1c0.2,0.1,0.2,0.3,0.4,0.4
				c0.1,0,0.1,0,0.2,0.1c0.2,0.1,0.4,0.2,0.6,0.3c0.5,0,0.1-0.7,0.1-0.9c0.1,0,0.3-0.1,0.5-0.1c0.3,0.1,0.6,0.2,0.9,0.3
				c0.2,0.1,0.6,0,0.7,0.1c0.1,0,0.3,0,0.4,0c0-0.2,0.1-0.4,0.1-0.7c-0.5,0-0.9-0.2-1.3-0.4c0-0.3,0.3-0.6,0.5-0.8
				c0.1,0,0.1-0.1,0.2-0.2c0.1-0.1,0.3-0.2,0.5-0.3c0.3-0.1,1.1-0.1,1.4,0c0.2,0.1,0.3,0.2,0.5,0.3c0.1,0,0.2,0.1,0.2,0.1
				c0.2,0,0.3-0.3,0.5-0.4c0-0.2,0-0.2,0-0.4h-0.1c0-0.2,0.2-0.3,0.3-0.4c0-0.2-0.2-0.2-0.3-0.4c-0.1,0-0.2,0.1-0.3,0.1
				c-0.1,0-0.2,0.1-0.3,0.1c-0.2,0.1-0.4-0.1-0.5-0.1c-0.2,0-0.5,0.1-0.7,0c0,0-0.1-0.1-0.1-0.1c0-0.1,0-0.2,0-0.3
				c0-0.1-0.1-0.1-0.2-0.2c-0.4,0-0.5,0.4-0.8,0.5c-0.1,0.1-0.2,0.1-0.4,0.2c-0.1,0.1-0.2,0.2-0.3,0.2c-0.1,0-0.1,0-0.2,0
				c0,0-0.1,0.1-0.1,0.1c-0.2,0.1-0.3,0-0.4,0.1c-0.1,0-0.1,0.1-0.2,0.1c-0.1,0.4-0.2,0.8-0.6,1c-0.1,0.1-0.4,0.1-0.5,0
				c-0.2,0-0.2-0.3-0.4-0.4c-0.1-0.1-0.3,0-0.4-0.1c-0.3-0.1-0.4-0.1-0.6-0.2c0-0.4,0.3-0.6,0.4-0.9c0.4-0.7,0.7-1.6,1.6-1.9
				c0.3-0.1,0.6,0.1,0.8,0.1c0.2,0,0.3,0,0.4,0c0.1,0,0.3,0.1,0.4,0c0.1,0,0.2-0.2,0.3-0.3c0.1,0,0.1,0,0.2,0c0,0,0.2-0.2,0.3-0.2
				c0.2-0.1,0.4-0.1,0.6-0.2c0.1-0.1,0.2-0.2,0.4-0.2c0.1,0,0.1,0,0.2,0c0.1,0,0.3-0.1,0.4-0.1c0,0,0.1-0.1,0.1-0.1
				c0.2-0.1,0.4-0.2,0.7-0.3c0,0,0.1-0.1,0.2-0.1c0.1,0,0.1,0,0.2,0c0,0,0.1-0.1,0.1-0.1c0.1,0,0.4,0,0.5-0.1
				C34.4,14.4,34.6,14.1,34.5,13.8C34.6,13.9,34.5,13.9,34.5,13.8z M18.7,15.4c-0.1,0.4-0.2,0.8-0.3,1.1c0,0.2,0,0.3-0.1,0.5v0.4
				c0,0.6,0.2,1.1,0.2,1.7v0.5c0,0.2-0.1,0.4-0.2,0.6c0,0.1-0.1,0.2-0.2,0.3c0,0-0.1,0-0.1,0.1c-0.2-0.1-0.4-0.3-0.5-0.5
				c-0.3-0.3-0.6-0.7-0.8-1.1c-0.1-0.3-0.1-0.6-0.2-0.9c-0.2-0.6-0.3-1.5-0.5-2c-0.1-0.1-0.2-0.3-0.3-0.5c-0.1-0.1-0.1-0.3-0.2-0.4
				c-0.1-0.1-0.3-0.3-0.4-0.4c0,0-0.1-0.1-0.1-0.1c-0.2-0.2-0.5-0.3-0.7-0.5c0,0,0-0.1,0-0.1h-0.1c0,0-0.1-0.1-0.2-0.1c0,0,0,0,0,0
				c0.2-0.1,0.3-0.1,0.5-0.2c0.2-0.1,0.3-0.2,0.5-0.3c0.1-0.1,0.2-0.1,0.3-0.1c0.2-0.1,0.3-0.2,0.5-0.2C15.9,13,16,13,16.1,13
				c0.1,0,0.2,0,0.2,0c0.2,0,0.4,0,0.6,0.1c0.4,0.1,0.8,0.5,1.1,0.8c0.1,0.1,0.1,0.2,0.2,0.3C18.4,14.3,18.8,15,18.7,15.4z M22.4,19
				c-0.2,0.3-0.3,0.5-0.5,0.8c-0.1,0.1-0.1,0.2-0.2,0.3c0,0-0.1,0.1-0.1,0.1c-0.2,0.3-0.4,0.5-0.6,0.7C21,21,20.9,21,20.8,21.1h-0.1
				c0.1-0.3,0.2-0.7,0.3-1.1c0.2-0.5,0.5-0.9,0.7-1.3c0.1-0.2,0.1-0.6,0-0.7c-0.1-0.1-0.1-0.1-0.2-0.2c-0.3,0-0.3,0.1-0.6,0.1
				c-0.1-0.1-0.2-0.2-0.3-0.3c-0.2-0.4-0.1-1.2,0-1.6c0-0.2,0-0.4,0.1-0.6c0.6,0,1,0.7,1.2,1.1c0.2,0.4,0.7,0.8,0.9,1.2
				C22.9,18.2,22.6,18.7,22.4,19z"/>
			<path class="st1" d="M21.5,28.3c0-0.1,0,0.1,0,0.1c0,0.2-0.1,0.3-0.2,0.4c-0.4,0.6-1.3,0.7-2,0.8c-0.2,0,0.2,0.2,0.7,0.1
				c0.9-0.1,1.8-0.5,1.7-1.4C21.7,28.1,21.4,28,21.5,28.3z"/>
		</g>
	</g>
</g>
</svg>
