<?xml version="1.0" encoding="utf-8"?>
<!-- Generator: Adobe Illustrator 21.1.0, SVG Export Plug-In . SVG Version: 6.00 Build 0)  -->
<svg version="1.1" id="圖層_1" xmlns="http://www.w3.org/2000/svg" xmlns:xlink="http://www.w3.org/1999/xlink" x="0px" y="0px"
	 viewBox="0 0 22 21" style="enable-background:new 0 0 22 21;" xml:space="preserve">
<style type="text/css">
	.st0{fill:#FFFFFF;}
</style>
<path class="st0" d="M19.4,17.5l-3.7-3.7c1.1-1.4,1.8-3.2,1.8-5.1c0-4.6-3.7-8.3-8.3-8.3S0.9,4.1,0.9,8.7c0,4.6,3.7,8.3,8.3,8.3
	c2,0,3.9-0.7,5.3-2l3.7,3.7L19.4,17.5z M9.2,15.3c-3.6,0-6.6-3-6.6-6.6c0-3.6,3-6.6,6.6-6.6c3.6,0,6.6,3,6.6,6.6
	C15.8,12.3,12.8,15.3,9.2,15.3z"/>
</svg>
