<?xml version="1.0" encoding="utf-8"?>
<!-- Generator: Adobe Illustrator 21.1.0, SVG Export Plug-In . SVG Version: 6.00 Build 0)  -->
<svg version="1.1" id="圖層_1" xmlns="http://www.w3.org/2000/svg" xmlns:xlink="http://www.w3.org/1999/xlink" x="0px" y="0px"
	 viewBox="0 0 27 25" style="enable-background:new 0 0 27 25;" xml:space="preserve">
<style type="text/css">
	.st0{fill:#FFFFFF;}
	.st1{fill:none;stroke:#FFFFFF;stroke-miterlimit:10;}
</style>
<g>
	<g>
		<path class="st0" d="M13.1,5.8c3,0,5.5,2.5,5.5,5.5s-2.5,5.5-5.5,5.5s-5.5-2.5-5.5-5.5S10,5.8,13.1,5.8 M13.1,4.8
			c-3.6,0-6.5,2.9-6.5,6.5c0,3.6,2.9,6.5,6.5,6.5s6.5-2.9,6.5-6.5C19.6,7.7,16.7,4.8,13.1,4.8L13.1,4.8z"/>
	</g>
	<g>
		<line class="st1" x1="9.6" y1="11.2" x2="16.3" y2="11.2"/>
		<line class="st1" x1="12.9" y1="14.5" x2="12.9" y2="7.8"/>
	</g>
	<line class="st1" x1="17.1" y1="15.3" x2="20.1" y2="18.3"/>
</g>
</svg>
